<svg width="25" height="25" viewBox="0 0 25 25" fill="none" xmlns="http://www.w3.org/2000/svg">
<path d="M12.501 4.71771C13.6914 3.65277 15.2444 3.08399 16.841 3.12816C18.4376 3.17232 19.9567 3.82609 21.0865 4.95521C22.2149 6.08353 22.8691 7.60078 22.9148 9.19593C22.9605 10.7911 22.3943 12.3433 21.3323 13.5344L12.499 22.3802L3.6677 13.5344C2.60443 12.3427 2.0377 10.7891 2.08388 9.1927C2.13006 7.59626 2.78564 6.07808 3.91603 4.94983C5.04641 3.82157 6.56583 3.16886 8.16235 3.1257C9.75887 3.08253 11.3113 3.65219 12.501 4.71771ZM19.6115 6.42709C18.8587 5.6756 17.847 5.24045 16.7838 5.21082C15.7205 5.18119 14.6862 5.55931 13.8927 6.26771L12.5021 7.51563L11.1104 6.26875C10.3205 5.56239 9.2911 5.18354 8.23173 5.2093C7.17236 5.23505 6.1626 5.66348 5.40793 6.40739C4.65327 7.15131 4.2104 8.15482 4.16945 9.21371C4.12849 10.2726 4.49254 11.3073 5.18749 12.1073L12.5 19.4313L19.8125 12.1083C20.5045 11.3119 20.8686 10.2825 20.8313 9.2281C20.794 8.17366 20.3581 7.17263 19.6115 6.42709Z" fill="#FF0000"/>
</svg>
