<svg width="35" height="35" viewBox="0 0 35 35" fill="none" xmlns="http://www.w3.org/2000/svg">
<path d="M17.5015 6.60482C19.168 5.1139 21.3421 4.31761 23.5774 4.37944C25.8127 4.44128 27.9395 5.35655 29.521 6.93732C31.1009 8.51697 32.0167 10.6411 32.0807 12.8743C32.1447 15.1075 31.352 17.2806 29.8652 18.9482L17.4985 31.3323L5.13479 18.9482C3.64621 17.2798 2.8528 15.1048 2.91745 12.8698C2.9821 10.6348 3.89991 8.50934 5.48245 6.92978C7.06499 5.35023 9.19218 4.43643 11.4273 4.376C13.6624 4.31557 15.8359 5.11309 17.5015 6.60482ZM27.456 8.99795C26.4022 7.94586 24.9858 7.33665 23.4973 7.29517C22.0087 7.25368 20.5606 7.78306 19.4498 8.77482L17.5029 10.5219L15.5546 8.77628C14.4487 7.78737 13.0076 7.25698 11.5244 7.29304C10.0413 7.3291 8.62765 7.92889 7.57112 8.97038C6.51458 10.0119 5.89457 11.4168 5.83724 12.8992C5.7799 14.3817 6.28956 15.8303 7.2625 16.9502L17.5 27.2038L27.7375 16.9517C28.7064 15.8367 29.2161 14.3956 29.1639 12.9194C29.1116 11.4431 28.5013 10.0417 27.456 8.99795Z" fill="#FF0000"/>
</svg>
