<svg width="25" height="25" viewBox="0 0 25 25" fill="none" xmlns="http://www.w3.org/2000/svg">
<mask id="path-1-inside-1_61_222" fill="white">
<path d="M10.9896 2.63748C11.4123 2.28125 11.9472 2.08588 12.5 2.08588C13.0528 2.08588 13.5877 2.28125 14.0104 2.63748L21.0417 8.56664C21.5698 9.01248 21.875 9.66768 21.875 10.3583V20.0562C21.875 20.5397 21.6829 21.0034 21.3411 21.3452C20.9992 21.6871 20.5356 21.8791 20.0521 21.8791H16.4063C15.9228 21.8791 15.4591 21.6871 15.1173 21.3452C14.7754 21.0034 14.5833 20.5397 14.5833 20.0562V14.8406C14.5833 14.7715 14.5559 14.7053 14.5071 14.6565C14.4582 14.6076 14.392 14.5802 14.3229 14.5802H10.6771C10.608 14.5802 10.5418 14.6076 10.4929 14.6565C10.4441 14.7053 10.4167 14.7715 10.4167 14.8406V20.0562C10.4167 20.5397 10.2246 21.0034 9.88275 21.3452C9.54088 21.6871 9.07722 21.8791 8.59375 21.8791H4.94792C4.70853 21.8791 4.47148 21.832 4.25032 21.7404C4.02915 21.6488 3.82819 21.5145 3.65892 21.3452C3.48965 21.176 3.35537 20.975 3.26376 20.7538C3.17215 20.5327 3.125 20.2956 3.125 20.0562V10.3583C3.125 9.66768 3.43021 9.01248 3.95833 8.56664L10.9896 2.63748ZM13.0031 3.83227C12.8623 3.71371 12.6841 3.64869 12.5 3.64869C12.3159 3.64869 12.1377 3.71371 11.9969 3.83227L4.96563 9.76039C4.87861 9.83364 4.80864 9.925 4.7606 10.0281C4.71257 10.1312 4.68762 10.2435 4.6875 10.3573V20.0552C4.6875 20.1989 4.80417 20.3156 4.94792 20.3156H8.59375C8.66282 20.3156 8.72906 20.2882 8.77789 20.2393C8.82673 20.1905 8.85417 20.1243 8.85417 20.0552V14.8396C8.85417 13.8323 9.67083 13.0166 10.6771 13.0166H14.3229C15.3292 13.0166 16.1458 13.8323 16.1458 14.8396V20.0552C16.1458 20.1989 16.2625 20.3156 16.4063 20.3156H20.0521C20.1212 20.3156 20.1874 20.2882 20.2362 20.2393C20.2851 20.1905 20.3125 20.1243 20.3125 20.0552V10.3573C20.3124 10.2435 20.2874 10.1312 20.2394 10.0281C20.1914 9.925 20.1214 9.83364 20.0344 9.76039L13.0031 3.83227Z"/>
</mask>
<path d="M10.9896 2.63748C11.4123 2.28125 11.9472 2.08588 12.5 2.08588C13.0528 2.08588 13.5877 2.28125 14.0104 2.63748L21.0417 8.56664C21.5698 9.01248 21.875 9.66768 21.875 10.3583V20.0562C21.875 20.5397 21.6829 21.0034 21.3411 21.3452C20.9992 21.6871 20.5356 21.8791 20.0521 21.8791H16.4063C15.9228 21.8791 15.4591 21.6871 15.1173 21.3452C14.7754 21.0034 14.5833 20.5397 14.5833 20.0562V14.8406C14.5833 14.7715 14.5559 14.7053 14.5071 14.6565C14.4582 14.6076 14.392 14.5802 14.3229 14.5802H10.6771C10.608 14.5802 10.5418 14.6076 10.4929 14.6565C10.4441 14.7053 10.4167 14.7715 10.4167 14.8406V20.0562C10.4167 20.5397 10.2246 21.0034 9.88275 21.3452C9.54088 21.6871 9.07722 21.8791 8.59375 21.8791H4.94792C4.70853 21.8791 4.47148 21.832 4.25032 21.7404C4.02915 21.6488 3.82819 21.5145 3.65892 21.3452C3.48965 21.176 3.35537 20.975 3.26376 20.7538C3.17215 20.5327 3.125 20.2956 3.125 20.0562V10.3583C3.125 9.66768 3.43021 9.01248 3.95833 8.56664L10.9896 2.63748ZM13.0031 3.83227C12.8623 3.71371 12.6841 3.64869 12.5 3.64869C12.3159 3.64869 12.1377 3.71371 11.9969 3.83227L4.96563 9.76039C4.87861 9.83364 4.80864 9.925 4.7606 10.0281C4.71257 10.1312 4.68762 10.2435 4.6875 10.3573V20.0552C4.6875 20.1989 4.80417 20.3156 4.94792 20.3156H8.59375C8.66282 20.3156 8.72906 20.2882 8.77789 20.2393C8.82673 20.1905 8.85417 20.1243 8.85417 20.0552V14.8396C8.85417 13.8323 9.67083 13.0166 10.6771 13.0166H14.3229C15.3292 13.0166 16.1458 13.8323 16.1458 14.8396V20.0552C16.1458 20.1989 16.2625 20.3156 16.4063 20.3156H20.0521C20.1212 20.3156 20.1874 20.2882 20.2362 20.2393C20.2851 20.1905 20.3125 20.1243 20.3125 20.0552V10.3573C20.3124 10.2435 20.2874 10.1312 20.2394 10.0281C20.1914 9.925 20.1214 9.83364 20.0344 9.76039L13.0031 3.83227Z" fill="#FF0000"/>
<path d="M10.9896 2.63748L9.70069 1.10817L9.70028 1.10852L10.9896 2.63748ZM14.0104 2.63748L15.2997 1.10852L15.2993 1.10817L14.0104 2.63748ZM21.0417 8.56664L22.3318 7.03838L22.331 7.03769L21.0417 8.56664ZM21.875 20.0562L19.875 20.0562L21.875 20.0562ZM14.5833 20.0562H16.5833H14.5833ZM3.125 20.0562L1.125 20.0562L3.125 20.0562ZM3.95833 8.56664L2.66903 7.03769L2.66821 7.03838L3.95833 8.56664ZM13.0031 3.83227L14.2923 2.3032L14.2911 2.30222L13.0031 3.83227ZM12.5 3.64869L12.5 1.64869L12.5 3.64869ZM11.9969 3.83227L10.7089 2.30222L10.7077 2.3032L11.9969 3.83227ZM4.96563 9.76039L6.25362 11.2904L6.2548 11.2895L4.96563 9.76039ZM4.6875 10.3573L2.6875 10.3552V10.3573H4.6875ZM20.3125 10.3573L22.3125 10.3573L22.3125 10.3552L20.3125 10.3573ZM20.0344 9.76039L18.7452 11.2895L18.7464 11.2904L20.0344 9.76039ZM10.9896 2.63748L12.2785 4.16678C12.3405 4.11453 12.4189 4.08588 12.5 4.08588V2.08588V0.0858765C11.4755 0.0858765 10.484 0.447967 9.70069 1.10817L10.9896 2.63748ZM12.5 2.08588V4.08588C12.5811 4.08588 12.6595 4.11453 12.7215 4.16678L14.0104 2.63748L15.2993 1.10817C14.516 0.447967 13.5245 0.0858765 12.5 0.0858765V2.08588ZM14.0104 2.63748L12.7211 4.16643L19.7524 10.0956L21.0417 8.56664L22.331 7.03769L15.2997 1.10852L14.0104 2.63748ZM21.0417 8.56664L19.7515 10.0949C19.831 10.162 19.875 10.2587 19.875 10.3583H21.875H23.875C23.875 9.07664 23.3086 7.86297 22.3318 7.03838L21.0417 8.56664ZM21.875 10.3583H19.875V20.0562H21.875H23.875V10.3583H21.875ZM21.875 20.0562L19.875 20.0562C19.875 20.0093 19.8937 19.9642 19.9269 19.931L21.3411 21.3452L22.7553 22.7594C23.4722 22.0425 23.875 21.0701 23.875 20.0562L21.875 20.0562ZM21.3411 21.3452L19.9269 19.931C19.9601 19.8978 20.0051 19.8791 20.0521 19.8791V21.8791V23.8791C21.066 23.8791 22.0384 23.4764 22.7553 22.7594L21.3411 21.3452ZM20.0521 21.8791V19.8791H16.4063V21.8791V23.8791H20.0521V21.8791ZM16.4063 21.8791V19.8791C16.4532 19.8791 16.4983 19.8978 16.5315 19.931L15.1173 21.3452L13.703 22.7594C14.42 23.4764 15.3923 23.8791 16.4063 23.8791V21.8791ZM15.1173 21.3452L16.5315 19.931C16.5647 19.9642 16.5833 20.0093 16.5833 20.0562L14.5833 20.0562L12.5833 20.0562C12.5833 21.0701 12.9861 22.0425 13.703 22.7594L15.1173 21.3452ZM14.5833 20.0562H16.5833V14.8406H14.5833H12.5833V20.0562H14.5833ZM14.5833 14.8406H16.5833C16.5833 14.2411 16.3452 13.6661 15.9213 13.2422L14.5071 14.6565L13.0928 16.0707C12.7666 15.7444 12.5833 15.302 12.5833 14.8406H14.5833ZM14.5071 14.6565L15.9213 13.2422C15.4974 12.8183 14.9224 12.5802 14.3229 12.5802V14.5802V16.5802C13.8615 16.5802 13.4191 16.3969 13.0928 16.0707L14.5071 14.6565ZM14.3229 14.5802V12.5802H10.6771V14.5802V16.5802H14.3229V14.5802ZM10.6771 14.5802V12.5802C10.0776 12.5802 9.50263 12.8183 9.07873 13.2422L10.4929 14.6565L11.9072 16.0707C11.5809 16.3969 11.1385 16.5802 10.6771 16.5802V14.5802ZM10.4929 14.6565L9.07873 13.2422C8.65481 13.6662 8.41667 14.2411 8.41667 14.8406H10.4167H12.4167C12.4167 15.302 12.2334 15.7444 11.9072 16.0707L10.4929 14.6565ZM10.4167 14.8406H8.41667V20.0562H10.4167H12.4167V14.8406H10.4167ZM10.4167 20.0562H8.41667C8.41667 20.0093 8.43532 19.9642 8.46853 19.931L9.88275 21.3452L11.297 22.7594C12.0139 22.0425 12.4167 21.0701 12.4167 20.0562H10.4167ZM9.88275 21.3452L8.46853 19.931C8.50174 19.8978 8.54678 19.8791 8.59375 19.8791V21.8791V23.8791C9.60765 23.8791 10.58 23.4764 11.297 22.7594L9.88275 21.3452ZM8.59375 21.8791V19.8791H4.94792V21.8791V23.8791H8.59375V21.8791ZM4.94792 21.8791V19.8791C4.97117 19.8791 4.9942 19.8837 5.01568 19.8926L4.25032 21.7404L3.48495 23.5881C3.94877 23.7803 4.44589 23.8791 4.94792 23.8791V21.8791ZM4.25032 21.7404L5.01568 19.8926C5.03717 19.9015 5.05669 19.9146 5.07313 19.931L3.65892 21.3452L2.24471 22.7594C2.5997 23.1144 3.02113 23.396 3.48495 23.5881L4.25032 21.7404ZM3.65892 21.3452L5.07313 19.931C5.08957 19.9475 5.10262 19.967 5.11152 19.9885L3.26376 20.7538L1.416 21.5192C1.60812 21.983 1.88972 22.4044 2.24471 22.7594L3.65892 21.3452ZM3.26376 20.7538L5.11152 19.9885C5.12042 20.0099 5.125 20.033 5.125 20.0562L3.125 20.0562L1.125 20.0562C1.125 20.5583 1.22388 21.0554 1.416 21.5192L3.26376 20.7538ZM3.125 20.0562H5.125V10.3583H3.125H1.125V20.0562H3.125ZM3.125 10.3583H5.125C5.125 10.2587 5.169 10.162 5.24846 10.0949L3.95833 8.56664L2.66821 7.03838C1.69142 7.86297 1.125 9.07663 1.125 10.3583H3.125ZM3.95833 8.56664L5.24764 10.0956L12.2789 4.16643L10.9896 2.63748L9.70028 1.10852L2.66903 7.03769L3.95833 8.56664ZM13.0031 3.83227L14.2911 2.30222C13.7897 1.88014 13.1554 1.64869 12.5 1.64869V3.64869V5.64869C12.2128 5.64869 11.9348 5.54727 11.7151 5.36232L13.0031 3.83227ZM12.5 3.64869L12.5 1.64869C11.8446 1.64869 11.2103 1.88014 10.7089 2.30222L11.9969 3.83227L13.2849 5.36232C13.0652 5.54727 12.7872 5.64869 12.5 5.64869L12.5 3.64869ZM11.9969 3.83227L10.7077 2.3032L3.67645 8.23133L4.96563 9.76039L6.2548 11.2895L13.286 5.36133L11.9969 3.83227ZM4.96563 9.76039L3.67763 8.23034C3.36787 8.4911 3.11877 8.81634 2.94775 9.18336L4.7606 10.0281L6.57346 10.8728C6.49851 11.0337 6.38936 11.1762 6.25362 11.2904L4.96563 9.76039ZM4.7606 10.0281L2.94775 9.18336C2.77674 9.55038 2.68792 9.95031 2.6875 10.3552L4.6875 10.3573L6.6875 10.3593C6.68732 10.5367 6.6484 10.712 6.57346 10.8728L4.7606 10.0281ZM4.6875 10.3573H2.6875V20.0552H4.6875H6.6875V10.3573H4.6875ZM4.6875 20.0552H2.6875C2.6875 21.3035 3.69959 22.3156 4.94792 22.3156V20.3156V18.3156C5.90874 18.3156 6.6875 19.0944 6.6875 20.0552H4.6875ZM4.94792 20.3156V22.3156H8.59375V20.3156V18.3156H4.94792V20.3156ZM8.59375 20.3156V22.3156C9.19326 22.3156 9.7682 22.0774 10.1921 21.6535L8.77789 20.2393L7.36368 18.8251C7.68991 18.4989 8.13237 18.3156 8.59375 18.3156V20.3156ZM8.77789 20.2393L10.1921 21.6535C10.616 21.2296 10.8542 20.6547 10.8542 20.0552H8.85417H6.85417C6.85417 19.5938 7.03745 19.1513 7.36368 18.8251L8.77789 20.2393ZM8.85417 20.0552H10.8542V14.8396H8.85417H6.85417V20.0552H8.85417ZM8.85417 14.8396H10.8542C10.8542 14.9376 10.7747 15.0166 10.6771 15.0166V13.0166V11.0166C8.56701 11.0166 6.85417 12.727 6.85417 14.8396H8.85417ZM10.6771 13.0166V15.0166H14.3229V13.0166V11.0166H10.6771V13.0166ZM14.3229 13.0166V15.0166C14.2253 15.0166 14.1458 14.9376 14.1458 14.8396H16.1458H18.1458C18.1458 12.727 16.433 11.0166 14.3229 11.0166V13.0166ZM16.1458 14.8396H14.1458V20.0552H16.1458H18.1458V14.8396H16.1458ZM16.1458 20.0552H14.1458C14.1458 21.3035 15.1579 22.3156 16.4063 22.3156V20.3156V18.3156C17.3671 18.3156 18.1458 19.0944 18.1458 20.0552H16.1458ZM16.4063 20.3156V22.3156H20.0521V20.3156V18.3156H16.4063V20.3156ZM20.0521 20.3156V22.3156C20.6516 22.3156 21.2265 22.0774 21.6504 21.6535L20.2362 20.2393L18.822 18.8251C19.1482 18.4989 19.5907 18.3156 20.0521 18.3156V20.3156ZM20.2362 20.2393L21.6504 21.6535C22.0744 21.2296 22.3125 20.6547 22.3125 20.0552H20.3125H18.3125C18.3125 19.5938 18.4958 19.1514 18.822 18.8251L20.2362 20.2393ZM20.3125 20.0552H22.3125V10.3573H20.3125H18.3125V20.0552H20.3125ZM20.3125 10.3573L22.3125 10.3552C22.3121 9.95031 22.2233 9.55038 22.0522 9.18336L20.2394 10.0281L18.4265 10.8728C18.3516 10.712 18.3127 10.5367 18.3125 10.3593L20.3125 10.3573ZM20.2394 10.0281L22.0522 9.18336C21.8812 8.81635 21.6321 8.4911 21.3224 8.23034L20.0344 9.76039L18.7464 11.2904C18.6106 11.1762 18.5015 11.0336 18.4265 10.8728L20.2394 10.0281ZM20.0344 9.76039L21.3235 8.23133L14.2923 2.3032L13.0031 3.83227L11.714 5.36133L18.7452 11.2895L20.0344 9.76039Z" fill="#FF0000" mask="url(#path-1-inside-1_61_222)"/>
</svg>
