<svg width="35" height="35" viewBox="0 0 35 35" fill="none" xmlns="http://www.w3.org/2000/svg">
<path d="M17.5 3.92029C18.038 3.92029 18.5583 4.11074 18.9697 4.4574L28.8135 12.7572C29.3284 13.1919 29.6249 13.8301 29.625 14.5013V28.0785C29.625 28.4901 29.461 28.8851 29.1699 29.1761C28.8789 29.467 28.4847 29.6311 28.0732 29.6312H22.9688C22.5571 29.6312 22.1622 29.4672 21.8711 29.1761C21.5801 28.8851 21.417 28.4901 21.417 28.0785V20.7767C21.4169 20.4149 21.2725 20.0678 21.0166 19.8119C20.7607 19.5561 20.4136 19.4125 20.0518 19.4125H14.9482C14.6316 19.4125 14.3258 19.5222 14.083 19.7211L13.9834 19.8119C13.7275 20.0678 13.5831 20.4149 13.583 20.7767V28.0785C13.583 28.4901 13.4199 28.8851 13.1289 29.1761C12.8378 29.4672 12.4429 29.6312 12.0312 29.6312H6.92676C6.72305 29.6312 6.52121 29.591 6.33301 29.5131C6.14478 29.4351 5.97417 29.3202 5.83008 29.1761C5.68606 29.0321 5.57116 28.8614 5.49316 28.6732C5.41516 28.4849 5.375 28.2823 5.375 28.0785V14.5013C5.3751 13.8304 5.67093 13.1919 6.18555 12.7572L6.18652 12.7582L16.0303 4.4574C16.4417 4.11074 16.962 3.92029 17.5 3.92029ZM29.4375 14.4994C29.4372 14.1946 29.37 13.8929 29.2412 13.6166C29.1447 13.4097 29.0153 13.2205 28.8584 13.056L28.6924 12.8998L18.8486 4.60095V4.59998L18.7021 4.48767C18.3512 4.24154 17.9316 4.10779 17.5 4.10779C17.0066 4.10779 16.5288 4.28224 16.1514 4.59998V4.60095L6.30762 12.8998C6.07469 13.0959 5.88748 13.3406 5.75879 13.6166C5.63004 13.8929 5.56281 14.1946 5.5625 14.4994V28.0775C5.56261 28.8308 6.17344 29.4416 6.92676 29.4418H12.0312C12.3931 29.4418 12.7402 29.2982 12.9961 29.0424C13.252 28.7865 13.3955 28.4394 13.3955 28.0775V20.7758C13.3955 19.9182 14.0914 19.223 14.9482 19.223H20.0518C20.9086 19.223 21.6045 19.9182 21.6045 20.7758V28.0775C21.6046 28.831 22.2153 29.4418 22.9688 29.4418H28.0732C28.435 29.4417 28.7823 29.2982 29.0381 29.0424C29.2939 28.7865 29.4374 28.4393 29.4375 28.0775V14.4994Z" fill="#FF0000" stroke="#FF0000" stroke-width="2"/>
</svg>
