<svg width="203" height="24" viewBox="0 0 203 24" fill="none" xmlns="http://www.w3.org/2000/svg">
<path d="M78.4704 8.82L78.5904 10.1C78.5904 10.2333 78.517 10.34 78.3704 10.42C78.237 10.5 78.1237 10.54 78.0304 10.54C77.8437 10.54 77.677 10.3933 77.5304 10.1C77.397 9.79333 77.3304 9.51333 77.3304 9.26C77.3304 8.27333 77.6704 7.44 78.3504 6.76C79.0437 6.06667 79.917 5.54667 80.9704 5.2C80.9704 4.74667 81.0637 4.32 81.2504 3.92C81.4504 3.50667 81.757 3.3 82.1704 3.3C82.3437 3.3 82.4304 3.54667 82.4304 4.04V4.88C82.857 4.82667 83.1704 4.8 83.3704 4.8C85.1437 4.8 86.5437 5.3 87.5704 6.3C88.6104 7.28667 89.1304 8.53333 89.1304 10.04C89.1304 11.08 88.9437 12 88.5704 12.8C88.197 13.6 87.6904 14.2333 87.0504 14.7C85.7704 15.6333 84.237 16.1 82.4504 16.1H82.0304C81.9904 16.4867 81.937 16.68 81.8704 16.68C81.2437 16.68 80.8237 16.5933 80.6104 16.42C80.517 16.3267 80.4637 16.1667 80.4504 15.94C79.2637 15.6067 78.6704 15.24 78.6704 14.84C78.6704 14.7067 78.717 14.6067 78.8104 14.54C78.9037 14.46 79.0037 14.42 79.1104 14.42C79.2304 14.42 79.677 14.58 80.4504 14.9C80.5704 11.4067 80.7237 8.40667 80.9104 5.9C80.177 6.15333 79.5837 6.53333 79.1304 7.04C78.6904 7.54667 78.4704 8.14 78.4704 8.82ZM82.8304 5.58C82.6437 5.58 82.5037 5.58667 82.4104 5.6C82.357 7.93333 82.2904 9.89333 82.2104 11.48C82.1437 13.5467 82.097 14.8467 82.0704 15.38C82.337 15.42 82.617 15.44 82.9104 15.44C84.177 15.44 85.277 14.9733 86.2104 14.04C87.1437 13.0933 87.6104 11.9333 87.6104 10.56C87.6104 9.18667 87.1637 8.01333 86.2704 7.04C85.377 6.06667 84.2304 5.58 82.8304 5.58ZM92.4363 16.1C91.6896 16.1 91.0963 15.82 90.6563 15.26C90.2163 14.6867 89.9963 14.04 89.9963 13.32C89.9963 11.8667 90.303 10.7667 90.9163 10.02C91.5296 9.27333 92.323 8.9 93.2963 8.9C93.7496 8.9 94.123 9.02667 94.4163 9.28C94.7096 9.52 94.8563 9.85333 94.8563 10.28C94.8563 11.08 94.5163 11.7533 93.8363 12.3C93.1696 12.8333 92.3496 13.1133 91.3763 13.14C91.4296 13.66 91.603 14.1133 91.8963 14.5C92.203 14.8733 92.5563 15.06 92.9563 15.06C93.3563 15.06 93.7163 14.9667 94.0363 14.78C94.3563 14.5933 94.6496 14.3267 94.9163 13.98C95.4763 13.2467 95.9563 12.4133 96.3563 11.48C96.463 11.24 96.543 11.0667 96.5963 10.96C96.663 10.8533 96.7296 10.8 96.7963 10.8C96.8763 10.8 96.9163 10.8533 96.9163 10.96C96.9163 11.6267 96.5096 12.6267 95.6963 13.96C94.8163 15.3867 93.7296 16.1 92.4363 16.1ZM91.3763 12.66C92.163 12.5267 92.7363 12.2733 93.0963 11.9C93.4696 11.5267 93.6563 11.04 93.6563 10.44C93.6563 9.84 93.463 9.54 93.0763 9.54C92.6096 9.54 92.2163 9.86667 91.8963 10.52C91.5763 11.16 91.403 11.8733 91.3763 12.66ZM98.3557 15.12C98.8357 15.12 99.2557 14.8733 99.6157 14.38C99.9757 13.8733 100.242 13.26 100.416 12.54C99.9357 12.3933 99.569 12.14 99.3157 11.78C99.0623 11.4067 98.9357 10.98 98.9357 10.5C98.9357 10.02 99.0557 9.6 99.2957 9.24C99.549 8.88 99.909 8.7 100.376 8.7C100.656 8.7 100.869 8.88 101.016 9.24C101.162 9.58667 101.236 9.98 101.236 10.42C101.236 10.86 101.202 11.3 101.136 11.74C101.336 11.82 101.549 11.86 101.776 11.86C102.296 11.86 102.796 11.62 103.276 11.14C103.516 10.9 103.676 10.78 103.756 10.78C103.849 10.78 103.896 10.8467 103.896 10.98C103.896 11.1133 103.809 11.2733 103.636 11.46C102.929 12.2467 102.036 12.64 100.956 12.64C100.702 13.6133 100.309 14.4333 99.7757 15.1C99.2423 15.7667 98.589 16.1 97.8157 16.1C97.3623 16.1 96.989 15.9067 96.6957 15.52C96.2023 14.8933 95.9557 13.9733 95.9557 12.76C95.9557 12.3467 95.989 11.8133 96.0557 11.16C96.1223 10.5067 96.1957 10.1067 96.2757 9.96C96.369 9.81333 96.5823 9.63333 96.9157 9.42C97.2623 9.20667 97.5023 9.1 97.6357 9.1C97.8357 9.1 97.9357 9.22 97.9357 9.46C97.9357 10.14 97.7623 10.88 97.4157 11.68C97.4157 12.6267 97.489 13.44 97.6357 14.12C97.7957 14.7867 98.0357 15.12 98.3557 15.12ZM100.176 9.46C100.069 9.46 100.016 9.68 100.016 10.12C100.016 10.56 100.216 10.98 100.616 11.38C100.642 11.22 100.656 11.06 100.656 10.9C100.656 9.94 100.496 9.46 100.176 9.46ZM111.048 12.7C111.141 12.5667 111.275 12.3333 111.448 12C111.875 11.24 112.128 10.86 112.208 10.86C112.301 10.86 112.348 10.9133 112.348 11.02C112.348 11.6733 112.008 12.5 111.328 13.5C110.101 15.3 108.468 16.2 106.428 16.2C105.855 16.2 105.328 16.0667 104.848 15.8C104.368 15.5333 103.988 15.1933 103.708 14.78C103.135 13.94 102.848 13.06 102.848 12.14C102.848 9.82 103.448 7.95333 104.648 6.54C105.861 5.11333 107.295 4.4 108.948 4.4C109.575 4.4 110.088 4.58667 110.488 4.96C110.888 5.32 111.088 5.78 111.088 6.34C111.088 6.9 110.948 7.42 110.668 7.9C110.388 8.38 110.048 8.62 109.648 8.62C109.261 8.62 109.068 8.51333 109.068 8.3C109.068 8.06 109.195 7.78667 109.448 7.48C109.715 7.17333 109.848 6.86667 109.848 6.56C109.848 5.61333 109.341 5.14 108.328 5.14C107.328 5.14 106.421 5.81333 105.608 7.16C104.795 8.50667 104.388 9.89333 104.388 11.32C104.388 12.3067 104.668 13.1867 105.228 13.96C105.788 14.72 106.575 15.1 107.588 15.1C108.788 15.1 109.941 14.3 111.048 12.7ZM117.35 11.66C117.883 11.4867 118.25 11.34 118.45 11.22C118.663 11.0867 118.823 10.9867 118.93 10.92L119.17 10.78C119.237 10.74 119.29 10.72 119.33 10.72C119.437 10.72 119.49 10.78 119.49 10.9C119.49 11.02 119.283 11.2333 118.87 11.54C118.457 11.8333 117.943 12.1 117.33 12.34C117.237 13.46 116.883 14.3667 116.27 15.06C115.657 15.7533 114.783 16.1 113.65 16.1C112.823 16.1 112.19 15.7733 111.75 15.12C111.31 14.4533 111.09 13.68 111.09 12.8C111.09 11.9067 111.35 11.0667 111.87 10.28C112.403 9.49333 113.083 9.1 113.91 9.1C114.283 8.83333 114.723 8.7 115.23 8.7C115.75 8.7 116.23 8.97333 116.67 9.52C117.11 10.0667 117.337 10.78 117.35 11.66ZM116.05 12.68L115.33 12.72C114.717 12.72 114.197 12.54 113.77 12.18C113.343 11.8067 113.13 11.4 113.13 10.96C113.13 10.52 113.203 10.14 113.35 9.82C112.777 10.2733 112.49 11.1667 112.49 12.5C112.49 13.14 112.623 13.7533 112.89 14.34C113.157 14.9133 113.577 15.2 114.15 15.2C114.723 15.2 115.17 14.96 115.49 14.48C115.81 13.9867 115.997 13.3867 116.05 12.68ZM114.81 9.36C114.597 9.36 114.43 9.46 114.31 9.66C114.19 9.84667 114.13 10.0533 114.13 10.28C114.13 10.7733 114.297 11.1733 114.63 11.48C114.977 11.7867 115.377 11.94 115.83 11.94H116.07C116.043 11.2867 115.93 10.6933 115.73 10.16C115.543 9.62667 115.237 9.36 114.81 9.36ZM119.935 14.92L119.955 15.54C119.955 15.9133 119.849 16.1 119.635 16.1C119.315 16.1 119.009 16.06 118.715 15.98C118.422 15.8867 118.275 15.7667 118.275 15.62C118.275 15.46 118.309 14.9333 118.375 14.04C118.455 13.1333 118.495 12.4533 118.495 12V10.82C118.495 10.18 118.562 9.79333 118.695 9.66C118.829 9.52667 119.062 9.33333 119.395 9.08C119.742 8.82667 119.989 8.7 120.135 8.7C120.295 8.7 120.395 8.72667 120.435 8.78C120.475 8.83333 120.495 8.93333 120.495 9.08C120.495 9.78667 120.362 10.4533 120.095 11.08C120.029 11.84 119.995 12.3667 119.995 12.66C120.049 12.58 120.329 12.1267 120.835 11.3C121.342 10.4733 121.769 9.86667 122.115 9.48C122.475 9.09333 122.795 8.9 123.075 8.9C123.355 8.9 123.602 8.99333 123.815 9.18C124.042 9.36667 124.155 9.6 124.155 9.88C124.155 10.4667 124.089 11.3333 123.955 12.48C123.835 13.6133 123.775 14.3333 123.775 14.64C123.775 14.9333 123.815 15.08 123.895 15.08C124.122 15.0667 124.435 14.7867 124.835 14.24C125.235 13.68 125.629 12.9667 126.015 12.1C126.415 11.2333 126.655 10.8 126.735 10.8C126.829 10.8 126.875 10.8533 126.875 10.96C126.875 11.3333 126.682 11.9267 126.295 12.74C125.242 14.98 124.355 16.1 123.635 16.1C123.115 16.1 122.722 15.9933 122.455 15.78C122.362 15.6867 122.315 15.4467 122.315 15.06C122.315 14.66 122.349 14.02 122.415 13.14C122.495 12.2467 122.535 11.58 122.535 11.14C122.535 10.7 122.455 10.48 122.295 10.48C122.149 10.48 121.749 10.94 121.095 11.86C120.442 12.7667 120.095 13.3467 120.055 13.6C119.975 14.0667 119.935 14.5067 119.935 14.92Z" fill="black"/>
</svg>
