<svg width="361" height="400" viewBox="0 0 361 400" fill="none" xmlns="http://www.w3.org/2000/svg">
<rect x="8" y="25" width="350" height="350" rx="50" fill="#FF0000"/>
<path d="M31.8406 172.4L34.2406 198C34.2406 200.667 32.774 202.8 29.8406 204.4C27.174 206 24.9073 206.8 23.0406 206.8C19.3073 206.8 15.974 203.867 13.0406 198C10.374 191.867 9.04063 186.267 9.04063 181.2C9.04063 161.467 15.8406 144.8 29.4406 131.2C43.3073 117.333 60.774 106.933 81.8406 100C81.8406 90.9333 83.7073 82.4 87.4406 74.4C91.4406 66.1333 97.574 62 105.841 62C109.307 62 111.041 66.9333 111.041 76.8V93.6C119.574 92.5333 125.841 92 129.841 92C165.307 92 193.307 102 213.841 122C234.641 141.733 245.041 166.667 245.041 196.8C245.041 217.6 241.307 236 233.841 252C226.374 268 216.241 280.667 203.441 290C177.841 308.667 147.174 318 111.441 318H103.041C102.241 325.733 101.174 329.6 99.8406 329.6C87.3073 329.6 78.9073 327.867 74.6406 324.4C72.774 322.533 71.7073 319.333 71.4406 314.8C47.7073 308.133 35.8406 300.8 35.8406 292.8C35.8406 290.133 36.774 288.133 38.6406 286.8C40.5073 285.2 42.5073 284.4 44.6406 284.4C47.0406 284.4 55.974 287.6 71.4406 294C73.8406 224.133 76.9073 164.133 80.6406 114C65.974 119.067 54.1073 126.667 45.0406 136.8C36.2406 146.933 31.8406 158.8 31.8406 172.4ZM119.041 107.6C115.307 107.6 112.507 107.733 110.641 108C109.574 154.667 108.241 193.867 106.641 225.6C105.307 266.933 104.374 292.933 103.841 303.6C109.174 304.4 114.774 304.8 120.641 304.8C145.974 304.8 167.974 295.467 186.641 276.8C205.307 257.867 214.641 234.667 214.641 207.2C214.641 179.733 205.707 156.267 187.841 136.8C169.974 117.333 147.041 107.6 119.041 107.6Z" fill="white"/>
<path d="M245.642 317C238.176 317 232.242 314.2 227.842 308.6C223.442 302.867 221.242 296.4 221.242 289.2C221.242 274.667 224.309 263.667 230.442 256.2C236.576 248.733 244.509 245 254.242 245C258.776 245 262.509 246.267 265.442 248.8C268.376 251.2 269.842 254.533 269.842 258.8C269.842 266.8 266.442 273.533 259.642 279C252.976 284.333 244.776 287.133 235.042 287.4C235.576 292.6 237.309 297.133 240.242 301C243.309 304.733 246.842 306.6 250.842 306.6C254.842 306.6 258.442 305.667 261.642 303.8C264.842 301.933 267.776 299.267 270.442 295.8C276.042 288.467 280.842 280.133 284.842 270.8C285.909 268.4 286.709 266.667 287.242 265.6C287.909 264.533 288.576 264 289.242 264C290.042 264 290.442 264.533 290.442 265.6C290.442 272.267 286.376 282.267 278.242 295.6C269.442 309.867 258.576 317 245.642 317ZM235.042 282.6C242.909 281.267 248.642 278.733 252.242 275C255.976 271.267 257.842 266.4 257.842 260.4C257.842 254.4 255.909 251.4 252.042 251.4C247.376 251.4 243.442 254.667 240.242 261.2C237.042 267.6 235.309 274.733 235.042 282.6ZM304.836 307.2C309.636 307.2 313.836 304.733 317.436 299.8C321.036 294.733 323.703 288.6 325.436 281.4C320.636 279.933 316.969 277.4 314.436 273.8C311.903 270.067 310.636 265.8 310.636 261C310.636 256.2 311.836 252 314.236 248.4C316.769 244.8 320.369 243 325.036 243C327.836 243 329.969 244.8 331.436 248.4C332.903 251.867 333.636 255.8 333.636 260.2C333.636 264.6 333.303 269 332.636 273.4C334.636 274.2 336.769 274.6 339.036 274.6C344.236 274.6 349.236 272.2 354.036 267.4C356.436 265 358.036 263.8 358.836 263.8C359.769 263.8 360.236 264.467 360.236 265.8C360.236 267.133 359.369 268.733 357.636 270.6C350.569 278.467 341.636 282.4 330.836 282.4C328.303 292.133 324.369 300.333 319.036 307C313.703 313.667 307.169 317 299.436 317C294.903 317 291.169 315.067 288.236 311.2C283.303 304.933 280.836 295.733 280.836 283.6C280.836 279.467 281.169 274.133 281.836 267.6C282.503 261.067 283.236 257.067 284.036 255.6C284.969 254.133 287.103 252.333 290.436 250.2C293.903 248.067 296.303 247 297.636 247C299.636 247 300.636 248.2 300.636 250.6C300.636 257.4 298.903 264.8 295.436 272.8C295.436 282.267 296.169 290.4 297.636 297.2C299.236 303.867 301.636 307.2 304.836 307.2ZM323.036 250.6C321.969 250.6 321.436 252.8 321.436 257.2C321.436 261.6 323.436 265.8 327.436 269.8C327.703 268.2 327.836 266.6 327.836 265C327.836 255.4 326.236 250.6 323.036 250.6Z" fill="white"/>
</svg>
