<svg width="119" height="134" viewBox="0 0 119 134" fill="none" xmlns="http://www.w3.org/2000/svg">
<path d="M11.6703 55.2L12.8703 68C12.8703 69.3333 12.137 70.4 10.6703 71.2C9.33698 72 8.20365 72.4 7.27031 72.4C5.40365 72.4 3.73698 70.9333 2.27031 68C0.936979 64.9333 0.270313 62.1333 0.270313 59.6C0.270313 49.7333 3.67031 41.4 10.4703 34.6C17.4036 27.6667 26.137 22.4667 36.6703 19C36.6703 14.4667 37.6036 10.2 39.4703 6.19999C41.4703 2.06666 44.537 -1.00136e-05 48.6703 -1.00136e-05C50.4036 -1.00136e-05 51.2703 2.46666 51.2703 7.39999V15.8C55.537 15.2667 58.6703 15 60.6703 15C78.4037 15 92.4037 20 102.67 30C113.07 39.8667 118.27 52.3333 118.27 67.4C118.27 77.8 116.404 87 112.67 95C108.937 103 103.87 109.333 97.4703 114C84.6703 123.333 69.337 128 51.4703 128H47.2703C46.8703 131.867 46.337 133.8 45.6703 133.8C39.4036 133.8 35.2036 132.933 33.0703 131.2C32.137 130.267 31.6036 128.667 31.4703 126.4C19.6036 123.067 13.6703 119.4 13.6703 115.4C13.6703 114.067 14.137 113.067 15.0703 112.4C16.0036 111.6 17.0036 111.2 18.0703 111.2C19.2703 111.2 23.737 112.8 31.4703 116C32.6703 81.0667 34.2036 51.0667 36.0703 26C28.737 28.5333 22.8036 32.3333 18.2703 37.4C13.8703 42.4667 11.6703 48.4 11.6703 55.2ZM55.2703 22.8C53.4036 22.8 52.0036 22.8667 51.0703 23C50.537 46.3333 49.8703 65.9333 49.0703 81.8C48.4036 102.467 47.937 115.467 47.6703 120.8C50.337 121.2 53.137 121.4 56.0703 121.4C68.737 121.4 79.737 116.733 89.0703 107.4C98.4037 97.9333 103.07 86.3333 103.07 72.6C103.07 58.8667 98.6037 47.1333 89.6703 37.4C80.737 27.6667 69.2703 22.8 55.2703 22.8Z" fill="black"/>
</svg>
