<svg width="51" height="14" viewBox="0 0 51 14" fill="none" xmlns="http://www.w3.org/2000/svg">
<path d="M1.61664 5.82L1.73664 7.1C1.73664 7.23333 1.66331 7.34 1.51664 7.42C1.38331 7.5 1.26997 7.54 1.17664 7.54C0.989974 7.54 0.823307 7.39333 0.676641 7.1C0.543307 6.79333 0.476641 6.51333 0.476641 6.26C0.476641 5.27333 0.816641 4.44 1.49664 3.76C2.18997 3.06667 3.06331 2.54667 4.11664 2.2C4.11664 1.74667 4.20997 1.32 4.39664 0.919999C4.59664 0.506666 4.90331 0.299999 5.31664 0.299999C5.48997 0.299999 5.57664 0.546666 5.57664 1.04V1.88C6.00331 1.82667 6.31664 1.8 6.51664 1.8C8.28997 1.8 9.68997 2.3 10.7166 3.3C11.7566 4.28667 12.2766 5.53333 12.2766 7.04C12.2766 8.08 12.09 9 11.7166 9.8C11.3433 10.6 10.8366 11.2333 10.1966 11.7C8.91664 12.6333 7.38331 13.1 5.59664 13.1H5.17664C5.13664 13.4867 5.08331 13.68 5.01664 13.68C4.38997 13.68 3.96997 13.5933 3.75664 13.42C3.66331 13.3267 3.60997 13.1667 3.59664 12.94C2.40997 12.6067 1.81664 12.24 1.81664 11.84C1.81664 11.7067 1.86331 11.6067 1.95664 11.54C2.04997 11.46 2.14997 11.42 2.25664 11.42C2.37664 11.42 2.82331 11.58 3.59664 11.9C3.71664 8.40667 3.86997 5.40667 4.05664 2.9C3.32331 3.15333 2.72997 3.53333 2.27664 4.04C1.83664 4.54667 1.61664 5.14 1.61664 5.82ZM5.97664 2.58C5.78997 2.58 5.64997 2.58667 5.55664 2.6C5.50331 4.93333 5.43664 6.89333 5.35664 8.48C5.28997 10.5467 5.24331 11.8467 5.21664 12.38C5.48331 12.42 5.76331 12.44 6.05664 12.44C7.32331 12.44 8.42331 11.9733 9.35664 11.04C10.29 10.0933 10.7566 8.93333 10.7566 7.56C10.7566 6.18667 10.31 5.01333 9.41664 4.04C8.52331 3.06667 7.37664 2.58 5.97664 2.58ZM15.5826 13.1C14.8359 13.1 14.2426 12.82 13.8026 12.26C13.3626 11.6867 13.1426 11.04 13.1426 10.32C13.1426 8.86667 13.4492 7.76667 14.0626 7.02C14.6759 6.27333 15.4692 5.9 16.4426 5.9C16.8959 5.9 17.2692 6.02667 17.5626 6.28C17.8559 6.52 18.0026 6.85333 18.0026 7.28C18.0026 8.08 17.6626 8.75333 16.9826 9.3C16.3159 9.83333 15.4959 10.1133 14.5226 10.14C14.5759 10.66 14.7492 11.1133 15.0426 11.5C15.3492 11.8733 15.7026 12.06 16.1026 12.06C16.5026 12.06 16.8626 11.9667 17.1826 11.78C17.5026 11.5933 17.7959 11.3267 18.0626 10.98C18.6226 10.2467 19.1026 9.41333 19.5026 8.48C19.6092 8.24 19.6892 8.06667 19.7426 7.96C19.8092 7.85333 19.8759 7.8 19.9426 7.8C20.0226 7.8 20.0626 7.85333 20.0626 7.96C20.0626 8.62667 19.6559 9.62667 18.8426 10.96C17.9626 12.3867 16.8759 13.1 15.5826 13.1ZM14.5226 9.66C15.3092 9.52667 15.8826 9.27333 16.2426 8.9C16.6159 8.52667 16.8026 8.04 16.8026 7.44C16.8026 6.84 16.6092 6.54 16.2226 6.54C15.7559 6.54 15.3626 6.86667 15.0426 7.52C14.7226 8.16 14.5492 8.87333 14.5226 9.66ZM21.502 12.12C21.982 12.12 22.402 11.8733 22.762 11.38C23.122 10.8733 23.3886 10.26 23.562 9.54C23.082 9.39333 22.7153 9.14 22.462 8.78C22.2086 8.40667 22.082 7.98 22.082 7.5C22.082 7.02 22.202 6.6 22.442 6.24C22.6953 5.88 23.0553 5.7 23.522 5.7C23.802 5.7 24.0153 5.88 24.162 6.24C24.3086 6.58667 24.382 6.98 24.382 7.42C24.382 7.86 24.3486 8.3 24.282 8.74C24.482 8.82 24.6953 8.86 24.922 8.86C25.442 8.86 25.942 8.62 26.422 8.14C26.662 7.9 26.822 7.78 26.902 7.78C26.9953 7.78 27.042 7.84667 27.042 7.98C27.042 8.11333 26.9553 8.27333 26.782 8.46C26.0753 9.24667 25.182 9.64 24.102 9.64C23.8486 10.6133 23.4553 11.4333 22.922 12.1C22.3886 12.7667 21.7353 13.1 20.962 13.1C20.5086 13.1 20.1353 12.9067 19.842 12.52C19.3486 11.8933 19.102 10.9733 19.102 9.76C19.102 9.34667 19.1353 8.81333 19.202 8.16C19.2686 7.50667 19.342 7.10667 19.422 6.96C19.5153 6.81333 19.7286 6.63333 20.062 6.42C20.4086 6.20667 20.6486 6.1 20.782 6.1C20.982 6.1 21.082 6.22 21.082 6.46C21.082 7.14 20.9086 7.88 20.562 8.68C20.562 9.62667 20.6353 10.44 20.782 11.12C20.942 11.7867 21.182 12.12 21.502 12.12ZM23.322 6.46C23.2153 6.46 23.162 6.68 23.162 7.12C23.162 7.56 23.362 7.98 23.762 8.38C23.7886 8.22 23.802 8.06 23.802 7.9C23.802 6.94 23.642 6.46 23.322 6.46ZM34.1941 9.7C34.2875 9.56667 34.4208 9.33333 34.5941 9C35.0208 8.24 35.2741 7.86 35.3541 7.86C35.4475 7.86 35.4941 7.91333 35.4941 8.02C35.4941 8.67333 35.1541 9.5 34.4741 10.5C33.2475 12.3 31.6141 13.2 29.5741 13.2C29.0008 13.2 28.4741 13.0667 27.9941 12.8C27.5141 12.5333 27.1341 12.1933 26.8541 11.78C26.2808 10.94 25.9941 10.06 25.9941 9.14C25.9941 6.82 26.5941 4.95333 27.7941 3.54C29.0075 2.11333 30.4408 1.4 32.0941 1.4C32.7208 1.4 33.2341 1.58667 33.6341 1.96C34.0341 2.32 34.2341 2.78 34.2341 3.34C34.2341 3.9 34.0941 4.42 33.8141 4.9C33.5341 5.38 33.1941 5.62 32.7941 5.62C32.4075 5.62 32.2141 5.51333 32.2141 5.3C32.2141 5.06 32.3408 4.78667 32.5941 4.48C32.8608 4.17333 32.9941 3.86667 32.9941 3.56C32.9941 2.61333 32.4875 2.14 31.4741 2.14C30.4741 2.14 29.5675 2.81333 28.7541 4.16C27.9408 5.50667 27.5341 6.89333 27.5341 8.32C27.5341 9.30667 27.8141 10.1867 28.3741 10.96C28.9341 11.72 29.7208 12.1 30.7341 12.1C31.9341 12.1 33.0875 11.3 34.1941 9.7ZM40.4963 8.66C41.0297 8.48667 41.3963 8.34 41.5963 8.22C41.8097 8.08667 41.9697 7.98667 42.0763 7.92L42.3163 7.78C42.383 7.74 42.4363 7.72 42.4763 7.72C42.583 7.72 42.6363 7.78 42.6363 7.9C42.6363 8.02 42.4297 8.23333 42.0163 8.54C41.603 8.83333 41.0897 9.1 40.4763 9.34C40.383 10.46 40.0297 11.3667 39.4163 12.06C38.803 12.7533 37.9297 13.1 36.7963 13.1C35.9697 13.1 35.3363 12.7733 34.8963 12.12C34.4563 11.4533 34.2363 10.68 34.2363 9.8C34.2363 8.90667 34.4963 8.06667 35.0163 7.28C35.5497 6.49333 36.2297 6.1 37.0563 6.1C37.4297 5.83333 37.8697 5.7 38.3763 5.7C38.8963 5.7 39.3763 5.97333 39.8163 6.52C40.2563 7.06667 40.483 7.78 40.4963 8.66ZM39.1963 9.68L38.4763 9.72C37.863 9.72 37.343 9.54 36.9163 9.18C36.4897 8.80667 36.2763 8.4 36.2763 7.96C36.2763 7.52 36.3497 7.14 36.4963 6.82C35.923 7.27333 35.6363 8.16667 35.6363 9.5C35.6363 10.14 35.7697 10.7533 36.0363 11.34C36.303 11.9133 36.723 12.2 37.2963 12.2C37.8697 12.2 38.3163 11.96 38.6363 11.48C38.9563 10.9867 39.143 10.3867 39.1963 9.68ZM37.9563 6.36C37.743 6.36 37.5763 6.46 37.4563 6.66C37.3363 6.84667 37.2763 7.05333 37.2763 7.28C37.2763 7.77333 37.443 8.17333 37.7763 8.48C38.123 8.78667 38.523 8.94 38.9763 8.94H39.2163C39.1897 8.28667 39.0763 7.69333 38.8763 7.16C38.6897 6.62667 38.383 6.36 37.9563 6.36ZM43.0815 11.92L43.1015 12.54C43.1015 12.9133 42.9948 13.1 42.7815 13.1C42.4615 13.1 42.1548 13.06 41.8615 12.98C41.5682 12.8867 41.4215 12.7667 41.4215 12.62C41.4215 12.46 41.4548 11.9333 41.5215 11.04C41.6015 10.1333 41.6415 9.45333 41.6415 9V7.82C41.6415 7.18 41.7082 6.79333 41.8415 6.66C41.9748 6.52667 42.2082 6.33333 42.5415 6.08C42.8882 5.82667 43.1348 5.7 43.2815 5.7C43.4415 5.7 43.5415 5.72667 43.5815 5.78C43.6215 5.83333 43.6415 5.93333 43.6415 6.08C43.6415 6.78667 43.5082 7.45333 43.2415 8.08C43.1748 8.84 43.1415 9.36667 43.1415 9.66C43.1948 9.58 43.4748 9.12667 43.9815 8.3C44.4882 7.47333 44.9148 6.86667 45.2615 6.48C45.6215 6.09333 45.9415 5.9 46.2215 5.9C46.5015 5.9 46.7482 5.99333 46.9615 6.18C47.1882 6.36667 47.3015 6.6 47.3015 6.88C47.3015 7.46667 47.2348 8.33333 47.1015 9.48C46.9815 10.6133 46.9215 11.3333 46.9215 11.64C46.9215 11.9333 46.9615 12.08 47.0415 12.08C47.2682 12.0667 47.5815 11.7867 47.9815 11.24C48.3815 10.68 48.7748 9.96667 49.1615 9.1C49.5615 8.23333 49.8015 7.8 49.8815 7.8C49.9748 7.8 50.0215 7.85333 50.0215 7.96C50.0215 8.33333 49.8282 8.92667 49.4415 9.74C48.3882 11.98 47.5015 13.1 46.7815 13.1C46.2615 13.1 45.8682 12.9933 45.6015 12.78C45.5082 12.6867 45.4615 12.4467 45.4615 12.06C45.4615 11.66 45.4948 11.02 45.5615 10.14C45.6415 9.24667 45.6815 8.58 45.6815 8.14C45.6815 7.7 45.6015 7.48 45.4415 7.48C45.2948 7.48 44.8948 7.94 44.2415 8.86C43.5882 9.76667 43.2415 10.3467 43.2015 10.6C43.1215 11.0667 43.0815 11.5067 43.0815 11.92Z" fill="black"/>
</svg>
