<svg width="116" height="25" viewBox="0 0 116 25" fill="none" xmlns="http://www.w3.org/2000/svg">
<path d="M4.49234 8.89666L4.67234 10.8167C4.67234 11.0167 4.56234 11.1767 4.34234 11.2967C4.14234 11.4167 3.97234 11.4767 3.83234 11.4767C3.55234 11.4767 3.30234 11.2567 3.08234 10.8167C2.88234 10.3567 2.78234 9.93666 2.78234 9.55666C2.78234 8.07666 3.29234 6.82666 4.31234 5.80666C5.35234 4.76666 6.66234 3.98666 8.24234 3.46666C8.24234 2.78666 8.38234 2.14666 8.66234 1.54666C8.96234 0.926655 9.42234 0.616655 10.0423 0.616655C10.3023 0.616655 10.4323 0.986655 10.4323 1.72666V2.98665C11.0723 2.90666 11.5423 2.86666 11.8423 2.86666C14.5023 2.86666 16.6023 3.61666 18.1423 5.11666C19.7023 6.59666 20.4823 8.46666 20.4823 10.7267C20.4823 12.2867 20.2023 13.6667 19.6423 14.8667C19.0823 16.0667 18.3223 17.0167 17.3623 17.7167C15.4423 19.1167 13.1423 19.8167 10.4623 19.8167H9.83234C9.77234 20.3967 9.69234 20.6867 9.59234 20.6867C8.65234 20.6867 8.02234 20.5567 7.70234 20.2967C7.56234 20.1567 7.48234 19.9167 7.46234 19.5767C5.68234 19.0767 4.79234 18.5267 4.79234 17.9267C4.79234 17.7267 4.86234 17.5767 5.00234 17.4767C5.14234 17.3567 5.29234 17.2967 5.45234 17.2967C5.63234 17.2967 6.30234 17.5367 7.46234 18.0167C7.64234 12.7767 7.87234 8.27666 8.15234 4.51666C7.05234 4.89666 6.16234 5.46666 5.48234 6.22666C4.82234 6.98666 4.49234 7.87666 4.49234 8.89666ZM11.0323 4.03666C10.7523 4.03666 10.5423 4.04666 10.4023 4.06666C10.3223 7.56666 10.2223 10.5067 10.1023 12.8867C10.0023 15.9867 9.93234 17.9367 9.89234 18.7367C10.2923 18.7967 10.7123 18.8267 11.1523 18.8267C13.0523 18.8267 14.7023 18.1267 16.1023 16.7267C17.5023 15.3067 18.2023 13.5667 18.2023 11.5067C18.2023 9.44666 17.5323 7.68666 16.1923 6.22666C14.8523 4.76666 13.1323 4.03666 11.0323 4.03666ZM25.4413 19.8167C24.3213 19.8167 23.4312 19.3967 22.7712 18.5567C22.1112 17.6967 21.7812 16.7267 21.7812 15.6467C21.7812 13.4667 22.2413 11.8167 23.1613 10.6967C24.0813 9.57666 25.2713 9.01666 26.7313 9.01666C27.4113 9.01666 27.9713 9.20666 28.4113 9.58666C28.8513 9.94666 29.0713 10.4467 29.0713 11.0867C29.0713 12.2867 28.5613 13.2967 27.5413 14.1167C26.5413 14.9167 25.3113 15.3367 23.8513 15.3767C23.9313 16.1567 24.1913 16.8367 24.6313 17.4167C25.0913 17.9767 25.6213 18.2567 26.2213 18.2567C26.8213 18.2567 27.3613 18.1167 27.8413 17.8367C28.3213 17.5567 28.7613 17.1567 29.1613 16.6367C30.0013 15.5367 30.7213 14.2867 31.3213 12.8867C31.4813 12.5267 31.6013 12.2667 31.6813 12.1067C31.7813 11.9467 31.8813 11.8667 31.9813 11.8667C32.1013 11.8667 32.1613 11.9467 32.1613 12.1067C32.1613 13.1067 31.5513 14.6067 30.3313 16.6067C29.0113 18.7467 27.3813 19.8167 25.4413 19.8167ZM23.8513 14.6567C25.0313 14.4567 25.8913 14.0767 26.4313 13.5167C26.9913 12.9567 27.2713 12.2267 27.2713 11.3267C27.2713 10.4267 26.9813 9.97666 26.4013 9.97666C25.7013 9.97666 25.1113 10.4667 24.6313 11.4467C24.1513 12.4067 23.8913 13.4767 23.8513 14.6567ZM34.3203 18.3467C35.0403 18.3467 35.6703 17.9767 36.2103 17.2367C36.7503 16.4767 37.1503 15.5567 37.4103 14.4767C36.6903 14.2567 36.1403 13.8767 35.7603 13.3367C35.3803 12.7767 35.1903 12.1367 35.1903 11.4167C35.1903 10.6967 35.3703 10.0667 35.7303 9.52666C36.1103 8.98666 36.6503 8.71666 37.3503 8.71666C37.7703 8.71666 38.0903 8.98666 38.3103 9.52666C38.5303 10.0467 38.6403 10.6367 38.6403 11.2967C38.6403 11.9567 38.5903 12.6167 38.4903 13.2767C38.7903 13.3967 39.1103 13.4567 39.4503 13.4567C40.2303 13.4567 40.9803 13.0967 41.7003 12.3767C42.0603 12.0167 42.3003 11.8367 42.4203 11.8367C42.5603 11.8367 42.6303 11.9367 42.6303 12.1367C42.6303 12.3367 42.5003 12.5767 42.2403 12.8567C41.1803 14.0367 39.8403 14.6267 38.2203 14.6267C37.8403 16.0867 37.2503 17.3167 36.4503 18.3167C35.6503 19.3167 34.6703 19.8167 33.5103 19.8167C32.8303 19.8167 32.2703 19.5267 31.8303 18.9467C31.0903 18.0067 30.7203 16.6267 30.7203 14.8067C30.7203 14.1867 30.7703 13.3867 30.8703 12.4067C30.9703 11.4267 31.0803 10.8267 31.2003 10.6067C31.3403 10.3867 31.6603 10.1167 32.1603 9.79666C32.6803 9.47666 33.0403 9.31666 33.2403 9.31666C33.5403 9.31666 33.6903 9.49666 33.6903 9.85666C33.6903 10.8767 33.4303 11.9867 32.9103 13.1867C32.9103 14.6067 33.0203 15.8267 33.2403 16.8467C33.4803 17.8467 33.8403 18.3467 34.3203 18.3467ZM37.0503 9.85666C36.8903 9.85666 36.8103 10.1867 36.8103 10.8467C36.8103 11.5067 37.1103 12.1367 37.7103 12.7367C37.7503 12.4967 37.7703 12.2567 37.7703 12.0167C37.7703 10.5767 37.5303 9.85666 37.0503 9.85666ZM53.3586 14.7167C53.4986 14.5167 53.6986 14.1667 53.9586 13.6667C54.5986 12.5267 54.9786 11.9567 55.0986 11.9567C55.2386 11.9567 55.3086 12.0367 55.3086 12.1967C55.3086 13.1767 54.7986 14.4167 53.7786 15.9167C51.9386 18.6167 49.4886 19.9667 46.4286 19.9667C45.5686 19.9667 44.7786 19.7667 44.0586 19.3667C43.3386 18.9667 42.7686 18.4567 42.3486 17.8367C41.4886 16.5767 41.0586 15.2567 41.0586 13.8767C41.0586 10.3967 41.9586 7.59666 43.7586 5.47666C45.5786 3.33666 47.7286 2.26666 50.2086 2.26666C51.1486 2.26666 51.9186 2.54666 52.5186 3.10666C53.1186 3.64666 53.4186 4.33666 53.4186 5.17666C53.4186 6.01666 53.2086 6.79666 52.7886 7.51666C52.3686 8.23666 51.8586 8.59666 51.2586 8.59666C50.6786 8.59666 50.3886 8.43666 50.3886 8.11666C50.3886 7.75666 50.5786 7.34666 50.9586 6.88666C51.3586 6.42666 51.5586 5.96666 51.5586 5.50666C51.5586 4.08666 50.7986 3.37666 49.2786 3.37666C47.7786 3.37666 46.4186 4.38666 45.1986 6.40666C43.9786 8.42666 43.3686 10.5067 43.3686 12.6467C43.3686 14.1267 43.7886 15.4467 44.6286 16.6067C45.4686 17.7467 46.6486 18.3167 48.1686 18.3167C49.9686 18.3167 51.6986 17.1167 53.3586 14.7167ZM62.8119 13.1567C63.6119 12.8967 64.1619 12.6767 64.4619 12.4967C64.7819 12.2967 65.0219 12.1467 65.1819 12.0467L65.5419 11.8367C65.6419 11.7767 65.7219 11.7467 65.7819 11.7467C65.9419 11.7467 66.0219 11.8367 66.0219 12.0167C66.0219 12.1967 65.7119 12.5167 65.0919 12.9767C64.4719 13.4167 63.7019 13.8167 62.7819 14.1767C62.6419 15.8567 62.1119 17.2167 61.1919 18.2567C60.2719 19.2967 58.9619 19.8167 57.2619 19.8167C56.0219 19.8167 55.0719 19.3267 54.4119 18.3467C53.7519 17.3467 53.4219 16.1867 53.4219 14.8667C53.4219 13.5267 53.8119 12.2667 54.5919 11.0867C55.3919 9.90666 56.4119 9.31666 57.6519 9.31666C58.2119 8.91666 58.8719 8.71666 59.6319 8.71666C60.4119 8.71666 61.1319 9.12666 61.7919 9.94666C62.4519 10.7667 62.7919 11.8367 62.8119 13.1567ZM60.8619 14.6867L59.7819 14.7467C58.8619 14.7467 58.0819 14.4767 57.4419 13.9367C56.8019 13.3767 56.4819 12.7667 56.4819 12.1067C56.4819 11.4467 56.5919 10.8767 56.8119 10.3967C55.9519 11.0767 55.5219 12.4167 55.5219 14.4167C55.5219 15.3767 55.7219 16.2967 56.1219 17.1767C56.5219 18.0367 57.1519 18.4667 58.0119 18.4667C58.8719 18.4667 59.5419 18.1067 60.0219 17.3867C60.5019 16.6467 60.7819 15.7467 60.8619 14.6867ZM59.0019 9.70666C58.6819 9.70666 58.4319 9.85666 58.2519 10.1567C58.0719 10.4367 57.9819 10.7467 57.9819 11.0867C57.9819 11.8267 58.2319 12.4267 58.7319 12.8867C59.2519 13.3467 59.8519 13.5767 60.5319 13.5767H60.8919C60.8519 12.5967 60.6819 11.7067 60.3819 10.9067C60.1019 10.1067 59.6419 9.70666 59.0019 9.70666ZM66.6896 18.0467L66.7196 18.9767C66.7196 19.5367 66.5596 19.8167 66.2396 19.8167C65.7596 19.8167 65.2996 19.7567 64.8596 19.6367C64.4196 19.4967 64.1996 19.3167 64.1996 19.0967C64.1996 18.8567 64.2496 18.0667 64.3496 16.7267C64.4696 15.3667 64.5296 14.3467 64.5296 13.6667V11.8967C64.5296 10.9367 64.6296 10.3567 64.8296 10.1567C65.0296 9.95666 65.3796 9.66666 65.8796 9.28666C66.3996 8.90666 66.7696 8.71666 66.9896 8.71666C67.2296 8.71666 67.3796 8.75666 67.4396 8.83666C67.4996 8.91666 67.5296 9.06666 67.5296 9.28666C67.5296 10.3467 67.3296 11.3467 66.9296 12.2867C66.8296 13.4267 66.7796 14.2167 66.7796 14.6567C66.8596 14.5367 67.2796 13.8567 68.0396 12.6167C68.7996 11.3767 69.4396 10.4667 69.9596 9.88666C70.4996 9.30666 70.9796 9.01666 71.3996 9.01666C71.8196 9.01666 72.1896 9.15666 72.5096 9.43666C72.8496 9.71666 73.0196 10.0667 73.0196 10.4867C73.0196 11.3667 72.9196 12.6667 72.7196 14.3867C72.5396 16.0867 72.4496 17.1667 72.4496 17.6267C72.4496 18.0667 72.5096 18.2867 72.6296 18.2867C72.9696 18.2667 73.4396 17.8467 74.0396 17.0267C74.6396 16.1867 75.2296 15.1167 75.8096 13.8167C76.4096 12.5167 76.7696 11.8667 76.8896 11.8667C77.0296 11.8667 77.0996 11.9467 77.0996 12.1067C77.0996 12.6667 76.8096 13.5567 76.2296 14.7767C74.6496 18.1367 73.3196 19.8167 72.2396 19.8167C71.4596 19.8167 70.8696 19.6567 70.4696 19.3367C70.3296 19.1967 70.2596 18.8367 70.2596 18.2567C70.2596 17.6567 70.3096 16.6967 70.4096 15.3767C70.5296 14.0367 70.5896 13.0367 70.5896 12.3767C70.5896 11.7167 70.4696 11.3867 70.2296 11.3867C70.0096 11.3867 69.4096 12.0767 68.4296 13.4567C67.4496 14.8167 66.9296 15.6867 66.8696 16.0667C66.7496 16.7667 66.6896 17.4267 66.6896 18.0467ZM77.8224 18.0467L77.8524 18.9767C77.8524 19.5367 77.6924 19.8167 77.3724 19.8167C76.8924 19.8167 76.4324 19.7567 75.9924 19.6367C75.5524 19.4967 75.3324 19.3167 75.3324 19.0967C75.3324 18.8567 75.3824 18.0667 75.4824 16.7267C75.6024 15.3667 75.6624 14.3467 75.6624 13.6667V11.8967C75.6624 10.9367 75.7624 10.3567 75.9624 10.1567C76.1624 9.95666 76.5124 9.66666 77.0124 9.28666C77.5324 8.90666 77.9024 8.71666 78.1224 8.71666C78.3624 8.71666 78.5124 8.75666 78.5724 8.83666C78.6324 8.91666 78.6624 9.06666 78.6624 9.28666C78.6624 10.3467 78.4624 11.3467 78.0624 12.2867C77.9624 13.4267 77.9124 14.2167 77.9124 14.6567C77.9924 14.5367 78.4124 13.8567 79.1724 12.6167C79.9324 11.3767 80.5724 10.4667 81.0924 9.88666C81.6324 9.30666 82.1124 9.01666 82.5324 9.01666C82.9524 9.01666 83.3224 9.15666 83.6424 9.43666C83.9824 9.71666 84.1524 10.0667 84.1524 10.4867C84.1524 11.3667 84.0524 12.6667 83.8524 14.3867C83.6724 16.0867 83.5824 17.1667 83.5824 17.6267C83.5824 18.0667 83.6424 18.2867 83.7624 18.2867C84.1024 18.2667 84.5724 17.8467 85.1724 17.0267C85.7724 16.1867 86.3624 15.1167 86.9424 13.8167C87.5424 12.5167 87.9024 11.8667 88.0224 11.8667C88.1624 11.8667 88.2324 11.9467 88.2324 12.1067C88.2324 12.6667 87.9424 13.5567 87.3624 14.7767C85.7824 18.1367 84.4524 19.8167 83.3724 19.8167C82.5924 19.8167 82.0024 19.6567 81.6024 19.3367C81.4624 19.1967 81.3924 18.8367 81.3924 18.2567C81.3924 17.6567 81.4424 16.6967 81.5424 15.3767C81.6624 14.0367 81.7224 13.0367 81.7224 12.3767C81.7224 11.7167 81.6024 11.3867 81.3624 11.3867C81.1424 11.3867 80.5424 12.0767 79.5624 13.4567C78.5824 14.8167 78.0624 15.6867 78.0024 16.0667C77.8824 16.7667 77.8224 17.4267 77.8224 18.0467ZM90.2752 19.8167C89.1552 19.8167 88.2652 19.3967 87.6052 18.5567C86.9452 17.6967 86.6152 16.7267 86.6152 15.6467C86.6152 13.4667 87.0752 11.8167 87.9952 10.6967C88.9152 9.57666 90.1052 9.01666 91.5652 9.01666C92.2452 9.01666 92.8052 9.20666 93.2452 9.58666C93.6852 9.94666 93.9052 10.4467 93.9052 11.0867C93.9052 12.2867 93.3952 13.2967 92.3752 14.1167C91.3752 14.9167 90.1452 15.3367 88.6852 15.3767C88.7652 16.1567 89.0252 16.8367 89.4652 17.4167C89.9252 17.9767 90.4552 18.2567 91.0552 18.2567C91.6552 18.2567 92.1952 18.1167 92.6752 17.8367C93.1552 17.5567 93.5952 17.1567 93.9952 16.6367C94.8352 15.5367 95.5552 14.2867 96.1552 12.8867C96.3152 12.5267 96.4352 12.2667 96.5152 12.1067C96.6152 11.9467 96.7152 11.8667 96.8152 11.8667C96.9352 11.8667 96.9952 11.9467 96.9952 12.1067C96.9952 13.1067 96.3852 14.6067 95.1652 16.6067C93.8452 18.7467 92.2152 19.8167 90.2752 19.8167ZM88.6852 14.6567C89.8652 14.4567 90.7252 14.0767 91.2652 13.5167C91.8252 12.9567 92.1052 12.2267 92.1052 11.3267C92.1052 10.4267 91.8152 9.97666 91.2352 9.97666C90.5352 9.97666 89.9452 10.4667 89.4652 11.4467C88.9852 12.4067 88.7252 13.4767 88.6852 14.6567ZM100.774 12.3767L101.014 10.8467C101.014 10.6267 100.944 10.4267 100.804 10.2467C100.664 10.0667 100.484 9.97666 100.264 9.97666C99.5243 9.97666 98.8843 10.5367 98.3443 11.6567C97.8043 12.7567 97.5343 13.8167 97.5343 14.8367C97.5343 15.8567 97.7443 16.6867 98.1643 17.3267C98.5843 17.9467 99.0943 18.2567 99.6943 18.2567C100.314 18.2567 100.864 18.1167 101.344 17.8367C101.824 17.5567 102.264 17.1567 102.664 16.6367C103.504 15.5367 104.224 14.2867 104.824 12.8867C104.984 12.5267 105.104 12.2667 105.184 12.1067C105.284 11.9467 105.384 11.8667 105.484 11.8667C105.604 11.8667 105.664 11.9467 105.664 12.1067C105.664 12.7667 105.434 13.5567 104.974 14.4767C104.514 15.3967 104.124 16.1067 103.804 16.6067C103.504 17.0867 103.114 17.5967 102.634 18.1367C101.634 19.2567 100.384 19.8167 98.8843 19.8167C97.7443 19.8167 96.8743 19.4167 96.2743 18.6167C95.6943 17.7967 95.4043 16.9267 95.4043 16.0067C95.4043 13.7267 95.8943 11.9967 96.8743 10.8167C97.8743 9.61666 99.1343 9.01666 100.654 9.01666C101.294 9.01666 101.794 9.18666 102.154 9.52666C102.534 9.84666 102.724 10.2167 102.724 10.6367C102.724 11.4167 102.584 11.9967 102.304 12.3767C102.024 12.7567 101.684 12.9467 101.284 12.9467C100.944 12.9467 100.774 12.7567 100.774 12.3767ZM110.708 14.7767C109.128 18.1367 107.788 19.8167 106.688 19.8167C105.608 19.8167 104.968 19.6867 104.768 19.4267C104.588 19.1667 104.498 18.3067 104.498 16.8467C104.498 15.3867 104.638 13.2767 104.918 10.5167C103.918 10.3167 103.388 9.90666 103.328 9.28666C103.328 8.96666 103.538 8.80666 103.958 8.80666C104.378 8.80666 104.748 8.88666 105.068 9.04666C105.248 7.60666 105.458 6.14666 105.698 4.66666C105.758 4.28666 105.948 3.92666 106.268 3.58666C106.588 3.24666 106.898 3.07666 107.198 3.07666C107.458 3.07666 107.588 3.48666 107.588 4.30666C107.588 4.68666 107.448 6.43666 107.168 9.55666C107.708 9.45666 108.298 9.25666 108.938 8.95666C109.598 8.65666 109.988 8.50666 110.108 8.50666C110.468 8.50666 110.648 8.61666 110.648 8.83666C110.668 9.03666 110.298 9.31666 109.538 9.67666C108.778 10.0167 107.958 10.2767 107.078 10.4567C106.838 13.3767 106.718 15.5867 106.718 17.0867C106.718 17.8867 106.838 18.2867 107.078 18.2867C107.438 18.2667 107.918 17.8467 108.518 17.0267C109.118 16.2067 109.708 15.1467 110.288 13.8467C110.888 12.5267 111.248 11.8667 111.368 11.8667C111.508 11.8667 111.578 11.9467 111.578 12.1067C111.578 12.6667 111.288 13.5567 110.708 14.7767Z" fill="black"/>
</svg>
