<svg width="350" height="400" viewBox="0 0 350 400" fill="none" xmlns="http://www.w3.org/2000/svg">
<rect x="1.5" y="26.5" width="347" height="347" rx="48.5" fill="#FF0000" stroke="black" stroke-width="3"/>
<g filter="url(#filter0_ddd_52_296)">
<mask id="path-2-inside-1_52_296" fill="white">
<path d="M75.8406 172.4L78.2406 198C78.2406 200.667 76.774 202.8 73.8406 204.4C71.174 206 68.9073 206.8 67.0406 206.8C63.3073 206.8 59.974 203.867 57.0406 198C54.374 191.867 53.0406 186.267 53.0406 181.2C53.0406 161.467 59.8406 144.8 73.4406 131.2C87.3073 117.333 104.774 106.933 125.841 100C125.841 90.9333 127.707 82.4 131.441 74.4C135.441 66.1333 141.574 62 149.841 62C153.307 62 155.041 66.9333 155.041 76.8V93.6C163.574 92.5333 169.841 92 173.841 92C209.307 92 237.307 102 257.841 122C278.641 141.733 289.041 166.667 289.041 196.8C289.041 217.6 285.307 236 277.841 252C270.374 268 260.241 280.667 247.441 290C221.841 308.667 191.174 318 155.441 318H147.041C146.241 325.733 145.174 329.6 143.841 329.6C131.307 329.6 122.907 327.867 118.641 324.4C116.774 322.533 115.707 319.333 115.441 314.8C91.7073 308.133 79.8406 300.8 79.8406 292.8C79.8406 290.133 80.774 288.133 82.6406 286.8C84.5073 285.2 86.5073 284.4 88.6406 284.4C91.0406 284.4 99.974 287.6 115.441 294C117.841 224.133 120.907 164.133 124.641 114C109.974 119.067 98.1073 126.667 89.0406 136.8C80.2406 146.933 75.8406 158.8 75.8406 172.4ZM163.041 107.6C159.307 107.6 156.507 107.733 154.641 108C153.574 154.667 152.241 193.867 150.641 225.6C149.307 266.933 148.374 292.933 147.841 303.6C153.174 304.4 158.774 304.8 164.641 304.8C189.974 304.8 211.974 295.467 230.641 276.8C249.307 257.867 258.641 234.667 258.641 207.2C258.641 179.733 249.707 156.267 231.841 136.8C213.974 117.333 191.041 107.6 163.041 107.6Z"/>
</mask>
<path d="M75.8406 172.4L78.2406 198C78.2406 200.667 76.774 202.8 73.8406 204.4C71.174 206 68.9073 206.8 67.0406 206.8C63.3073 206.8 59.974 203.867 57.0406 198C54.374 191.867 53.0406 186.267 53.0406 181.2C53.0406 161.467 59.8406 144.8 73.4406 131.2C87.3073 117.333 104.774 106.933 125.841 100C125.841 90.9333 127.707 82.4 131.441 74.4C135.441 66.1333 141.574 62 149.841 62C153.307 62 155.041 66.9333 155.041 76.8V93.6C163.574 92.5333 169.841 92 173.841 92C209.307 92 237.307 102 257.841 122C278.641 141.733 289.041 166.667 289.041 196.8C289.041 217.6 285.307 236 277.841 252C270.374 268 260.241 280.667 247.441 290C221.841 308.667 191.174 318 155.441 318H147.041C146.241 325.733 145.174 329.6 143.841 329.6C131.307 329.6 122.907 327.867 118.641 324.4C116.774 322.533 115.707 319.333 115.441 314.8C91.7073 308.133 79.8406 300.8 79.8406 292.8C79.8406 290.133 80.774 288.133 82.6406 286.8C84.5073 285.2 86.5073 284.4 88.6406 284.4C91.0406 284.4 99.974 287.6 115.441 294C117.841 224.133 120.907 164.133 124.641 114C109.974 119.067 98.1073 126.667 89.0406 136.8C80.2406 146.933 75.8406 158.8 75.8406 172.4ZM163.041 107.6C159.307 107.6 156.507 107.733 154.641 108C153.574 154.667 152.241 193.867 150.641 225.6C149.307 266.933 148.374 292.933 147.841 303.6C153.174 304.4 158.774 304.8 164.641 304.8C189.974 304.8 211.974 295.467 230.641 276.8C249.307 257.867 258.641 234.667 258.641 207.2C258.641 179.733 249.707 156.267 231.841 136.8C213.974 117.333 191.041 107.6 163.041 107.6Z" fill="white"/>
<path d="M75.8406 172.4H70.8406V172.634L70.8625 172.867L75.8406 172.4ZM78.2406 198H83.2406V197.766L83.2188 197.533L78.2406 198ZM73.8406 204.4L71.4464 200.011L71.3562 200.06L71.2681 200.113L73.8406 204.4ZM57.0406 198L52.4553 199.994L52.5086 200.116L52.5685 200.236L57.0406 198ZM73.4406 131.2L69.9051 127.664L69.9051 127.664L73.4406 131.2ZM125.841 100L127.404 104.749L130.841 103.618V100H125.841ZM131.441 74.4L126.94 72.2222L126.925 72.2538L126.91 72.2856L131.441 74.4ZM155.041 93.6H150.041V99.2639L155.661 98.5614L155.041 93.6ZM257.841 122L254.352 125.582L254.375 125.605L254.399 125.627L257.841 122ZM277.841 252L273.31 249.886L273.31 249.886L277.841 252ZM247.441 290L250.386 294.04L250.386 294.04L247.441 290ZM147.041 318V313H142.531L142.067 317.486L147.041 318ZM118.641 324.4L115.105 327.936L115.287 328.118L115.488 328.281L118.641 324.4ZM115.441 314.8L120.432 314.506L120.223 310.95L116.793 309.986L115.441 314.8ZM82.6406 286.8L85.5468 290.869L85.7267 290.74L85.8946 290.596L82.6406 286.8ZM115.441 294L113.529 298.62L120.19 301.376L120.438 294.172L115.441 294ZM124.641 114L129.627 114.371L130.191 106.793L123.008 109.274L124.641 114ZM89.0406 136.8L85.3144 133.466L85.2897 133.494L85.2655 133.522L89.0406 136.8ZM154.641 108L153.934 103.05L149.739 103.649L149.642 107.886L154.641 108ZM150.641 225.6L145.647 225.348L145.645 225.393L145.643 225.439L150.641 225.6ZM147.841 303.6L142.847 303.35L142.621 307.873L147.099 308.545L147.841 303.6ZM230.641 276.8L234.176 280.336L234.189 280.323L234.201 280.31L230.641 276.8ZM231.841 136.8L228.157 140.181L228.157 140.181L231.841 136.8ZM75.8406 172.4L70.8625 172.867L73.2625 198.467L78.2406 198L83.2188 197.533L80.8188 171.933L75.8406 172.4ZM78.2406 198H73.2406C73.2406 198.35 73.2515 199.026 71.4464 200.011L73.8406 204.4L76.2349 208.789C80.2964 206.574 83.2406 202.983 83.2406 198H78.2406ZM73.8406 204.4L71.2681 200.113C68.918 201.523 67.5831 201.8 67.0406 201.8V206.8V211.8C70.2315 211.8 73.4299 210.477 76.4131 208.687L73.8406 204.4ZM67.0406 206.8V201.8C66.3335 201.8 64.2654 201.269 61.5128 195.764L57.0406 198L52.5685 200.236C55.6825 206.464 60.2811 211.8 67.0406 211.8V206.8ZM57.0406 198L61.626 196.006C59.1496 190.311 58.0406 185.399 58.0406 181.2H53.0406H48.0406C48.0406 187.134 49.5983 193.423 52.4553 199.994L57.0406 198ZM53.0406 181.2H58.0406C58.0406 162.754 64.3408 147.371 76.9762 134.736L73.4406 131.2L69.9051 127.664C55.3405 142.229 48.0406 160.179 48.0406 181.2H53.0406ZM73.4406 131.2L76.9762 134.736C90.2207 121.491 106.982 111.47 127.404 104.749L125.841 100L124.278 95.2506C102.566 102.396 84.3939 113.176 69.9051 127.664L73.4406 131.2ZM125.841 100H130.841C130.841 91.6436 132.556 83.8342 135.972 76.5144L131.441 74.4L126.91 72.2856C122.859 80.9658 120.841 90.223 120.841 100H125.841ZM131.441 74.4L135.941 76.5778C137.649 73.0494 139.659 70.713 141.835 69.2463C143.98 67.8004 146.581 67 149.841 67V62V57C144.833 57 140.234 58.2663 136.246 60.9537C132.289 63.6203 129.233 67.4839 126.94 72.2222L131.441 74.4ZM149.841 62V67C149.38 67 148.919 66.7839 148.674 66.5523C148.546 66.4302 148.741 66.5541 149.023 67.3574C149.604 69.0089 150.041 72.0229 150.041 76.8H155.041H160.041C160.041 71.7104 159.611 67.3244 158.458 64.0425C157.873 62.3792 156.986 60.6531 155.557 59.2977C154.013 57.8327 152.035 57 149.841 57V62ZM155.041 76.8H150.041V93.6H155.041H160.041V76.8H155.041ZM155.041 93.6L155.661 98.5614C164.167 97.4982 170.172 97 173.841 97V92V87C169.509 87 162.981 87.5685 154.42 88.6386L155.041 93.6ZM173.841 92V97C208.33 97 234.963 106.696 254.352 125.582L257.841 122L261.329 118.418C239.652 97.304 210.284 87 173.841 87V92ZM257.841 122L254.399 125.627C274.149 144.364 284.041 167.96 284.041 196.8H289.041H294.041C294.041 165.373 283.133 139.103 261.282 118.373L257.841 122ZM289.041 196.8H284.041C284.041 216.998 280.417 234.655 273.31 249.886L277.841 252L282.372 254.114C290.197 237.345 294.041 218.202 294.041 196.8H289.041ZM277.841 252L273.31 249.886C266.159 265.21 256.537 277.179 244.495 285.96L247.441 290L250.386 294.04C263.945 284.154 274.589 270.79 282.372 254.114L277.841 252ZM247.441 290L244.495 285.96C219.858 303.924 190.257 313 155.441 313V318V323C192.091 323 223.823 313.409 250.386 294.04L247.441 290ZM155.441 318V313H147.041V318V323H155.441V318ZM147.041 318L142.067 317.486C141.674 321.282 141.241 323.848 140.821 325.37C140.6 326.17 140.469 326.357 140.542 326.238C140.587 326.167 140.811 325.813 141.295 325.444C141.832 325.034 142.709 324.6 143.841 324.6V329.6V334.6C146.857 334.6 148.48 332.412 149.039 331.512C149.713 330.426 150.148 329.163 150.461 328.03C151.107 325.685 151.607 322.452 152.014 318.514L147.041 318ZM143.841 329.6V324.6C137.773 324.6 132.905 324.178 129.151 323.403C125.339 322.617 123.052 321.542 121.794 320.519L118.641 324.4L115.488 328.281C118.496 330.725 122.542 332.25 127.13 333.197C131.776 334.156 137.375 334.6 143.841 334.6V329.6ZM118.641 324.4L122.176 320.864C121.614 320.302 120.674 318.625 120.432 314.506L115.441 314.8L110.449 315.094C110.74 320.042 111.934 324.765 115.105 327.936L118.641 324.4ZM115.441 314.8L116.793 309.986C105.088 306.698 96.7129 303.349 91.3691 300.047C85.8089 296.611 84.8406 294.08 84.8406 292.8H79.8406H74.8406C74.8406 299.52 79.8057 304.656 86.1121 308.553C92.6351 312.584 102.06 316.235 114.088 319.614L115.441 314.8ZM79.8406 292.8H84.8406C84.8406 291.448 85.221 291.101 85.5468 290.869L82.6406 286.8L79.7344 282.731C76.3269 285.165 74.8406 288.819 74.8406 292.8H79.8406ZM82.6406 286.8L85.8946 290.596C87.0014 289.648 87.8804 289.4 88.6406 289.4V284.4V279.4C85.1342 279.4 82.0132 280.752 79.3867 283.004L82.6406 286.8ZM88.6406 284.4V289.4C88.472 289.4 88.8764 289.408 90.307 289.812C91.5677 290.168 93.2726 290.726 95.4545 291.507C99.8091 293.067 105.823 295.432 113.529 298.62L115.441 294L117.352 289.38C109.591 286.168 103.405 283.733 98.8268 282.093C96.542 281.274 94.5969 280.632 93.0243 280.188C91.6216 279.792 90.0092 279.4 88.6406 279.4V284.4ZM115.441 294L120.438 294.172C122.836 224.348 125.9 164.418 129.627 114.371L124.641 114L119.654 113.629C115.915 163.848 112.845 223.919 110.444 293.828L115.441 294ZM124.641 114L123.008 109.274C107.651 114.579 95.0251 122.613 85.3144 133.466L89.0406 136.8L92.7668 140.134C101.19 130.72 112.296 123.554 126.273 118.726L124.641 114ZM89.0406 136.8L85.2655 133.522C75.6641 144.578 70.8406 157.613 70.8406 172.4H75.8406H80.8406C80.8406 159.987 84.8172 149.289 92.8158 140.078L89.0406 136.8ZM163.041 107.6V102.6C159.253 102.6 156.164 102.732 153.934 103.05L154.641 108L155.348 112.95C156.851 112.735 159.362 112.6 163.041 112.6V107.6ZM154.641 108L149.642 107.886C148.576 154.526 147.244 193.676 145.647 225.348L150.641 225.6L155.634 225.852C157.237 194.057 158.572 154.808 159.639 108.114L154.641 108ZM150.641 225.6L145.643 225.439C144.309 266.788 143.378 292.738 142.847 303.35L147.841 303.6L152.834 303.85C153.37 293.129 154.305 267.079 155.638 225.761L150.641 225.6ZM147.841 303.6L147.099 308.545C152.698 309.385 158.547 309.8 164.641 309.8V304.8V299.8C159.001 299.8 153.65 299.415 148.582 298.655L147.841 303.6ZM164.641 304.8V309.8C191.361 309.8 214.616 299.896 234.176 280.336L230.641 276.8L227.105 273.264C209.332 291.037 188.587 299.8 164.641 299.8V304.8ZM230.641 276.8L234.201 280.31C253.824 260.408 263.641 235.932 263.641 207.2H258.641H253.641C253.641 233.401 244.791 255.326 227.08 273.29L230.641 276.8ZM258.641 207.2H263.641C263.641 178.536 254.274 153.848 235.524 133.419L231.841 136.8L228.157 140.181C245.141 158.686 253.641 180.931 253.641 207.2H258.641ZM231.841 136.8L235.524 133.419C216.649 112.853 192.347 102.6 163.041 102.6V107.6V112.6C189.734 112.6 211.299 121.813 228.157 140.181L231.841 136.8Z" fill="black" mask="url(#path-2-inside-1_52_296)"/>
</g>
<defs>
<filter id="filter0_ddd_52_296" x="49.0406" y="62" width="244" height="275.6" filterUnits="userSpaceOnUse" color-interpolation-filters="sRGB">
<feFlood flood-opacity="0" result="BackgroundImageFix"/>
<feColorMatrix in="SourceAlpha" type="matrix" values="0 0 0 0 0 0 0 0 0 0 0 0 0 0 0 0 0 0 127 0" result="hardAlpha"/>
<feOffset dy="4"/>
<feGaussianBlur stdDeviation="2"/>
<feComposite in2="hardAlpha" operator="out"/>
<feColorMatrix type="matrix" values="0 0 0 0 0 0 0 0 0 0 0 0 0 0 0 0 0 0 0.25 0"/>
<feBlend mode="normal" in2="BackgroundImageFix" result="effect1_dropShadow_52_296"/>
<feColorMatrix in="SourceAlpha" type="matrix" values="0 0 0 0 0 0 0 0 0 0 0 0 0 0 0 0 0 0 127 0" result="hardAlpha"/>
<feOffset dy="4"/>
<feGaussianBlur stdDeviation="2"/>
<feComposite in2="hardAlpha" operator="out"/>
<feColorMatrix type="matrix" values="0 0 0 0 0 0 0 0 0 0 0 0 0 0 0 0 0 0 0.25 0"/>
<feBlend mode="normal" in2="effect1_dropShadow_52_296" result="effect2_dropShadow_52_296"/>
<feColorMatrix in="SourceAlpha" type="matrix" values="0 0 0 0 0 0 0 0 0 0 0 0 0 0 0 0 0 0 127 0" result="hardAlpha"/>
<feOffset dy="4"/>
<feGaussianBlur stdDeviation="2"/>
<feComposite in2="hardAlpha" operator="out"/>
<feColorMatrix type="matrix" values="0 0 0 0 0 0 0 0 0 0 0 0 0 0 0 0 0 0 0.25 0"/>
<feBlend mode="normal" in2="effect2_dropShadow_52_296" result="effect3_dropShadow_52_296"/>
<feBlend mode="normal" in="SourceGraphic" in2="effect3_dropShadow_52_296" result="shape"/>
</filter>
</defs>
</svg>
