<svg width="351" height="73" viewBox="0 0 351 73" fill="none" xmlns="http://www.w3.org/2000/svg">
<path d="M37.9119 22.28L38.3919 27.4C38.3919 27.9333 38.0985 28.36 37.5119 28.68C36.9785 29 36.5252 29.16 36.1519 29.16C35.4052 29.16 34.7385 28.5733 34.1519 27.4C33.6185 26.1733 33.3519 25.0533 33.3519 24.04C33.3519 20.0933 34.7119 16.76 37.4319 14.04C40.2052 11.2667 43.6985 9.18667 47.9119 7.8C47.9119 5.98667 48.2852 4.28 49.0319 2.68C49.8319 1.02666 51.0585 0.199996 52.7119 0.199996C53.4052 0.199996 53.7519 1.18666 53.7519 3.16V6.52C55.4585 6.30667 56.7119 6.2 57.5119 6.2C64.6052 6.2 70.2052 8.2 74.3119 12.2C78.4719 16.1467 80.5519 21.1333 80.5519 27.16C80.5519 31.32 79.8052 35 78.3119 38.2C76.8185 41.4 74.7919 43.9333 72.2319 45.8C67.1119 49.5333 60.9785 51.4 53.8319 51.4H52.1519C51.9919 52.9467 51.7785 53.72 51.5119 53.72C49.0052 53.72 47.3252 53.3733 46.4719 52.68C46.0985 52.3067 45.8852 51.6667 45.8319 50.76C41.0852 49.4267 38.7119 47.96 38.7119 46.36C38.7119 45.8267 38.8985 45.4267 39.2719 45.16C39.6452 44.84 40.0452 44.68 40.4719 44.68C40.9519 44.68 42.7385 45.32 45.8319 46.6C46.3119 32.6267 46.9252 20.6267 47.6719 10.6C44.7385 11.6133 42.3652 13.1333 40.5519 15.16C38.7919 17.1867 37.9119 19.56 37.9119 22.28ZM55.3519 9.32C54.6052 9.32 54.0452 9.34666 53.6719 9.4C53.4585 18.7333 53.1919 26.5733 52.8719 32.92C52.6052 41.1867 52.4185 46.3867 52.3119 48.52C53.3785 48.68 54.4985 48.76 55.6719 48.76C60.7385 48.76 65.1385 46.8933 68.8719 43.16C72.6052 39.3733 74.4719 34.7333 74.4719 29.24C74.4719 23.7467 72.6852 19.0533 69.1119 15.16C65.5385 11.2667 60.9519 9.32 55.3519 9.32ZM93.7756 51.4C90.789 51.4 88.4156 50.28 86.6556 48.04C84.8956 45.7467 84.0156 43.16 84.0156 40.28C84.0156 34.4667 85.2423 30.0667 87.6956 27.08C90.149 24.0933 93.3223 22.6 97.2156 22.6C99.029 22.6 100.522 23.1067 101.696 24.12C102.869 25.08 103.456 26.4133 103.456 28.12C103.456 31.32 102.096 34.0133 99.3756 36.2C96.709 38.3333 93.429 39.4533 89.5356 39.56C89.749 41.64 90.4423 43.4533 91.6156 45C92.8423 46.4933 94.2556 47.24 95.8556 47.24C97.4556 47.24 98.8956 46.8667 100.176 46.12C101.456 45.3733 102.629 44.3067 103.696 42.92C105.936 39.9867 107.856 36.6533 109.456 32.92C109.882 31.96 110.202 31.2667 110.416 30.84C110.682 30.4133 110.949 30.2 111.216 30.2C111.536 30.2 111.696 30.4133 111.696 30.84C111.696 33.5067 110.069 37.5067 106.816 42.84C103.296 48.5467 98.949 51.4 93.7756 51.4ZM89.5356 37.64C92.6823 37.1067 94.9756 36.0933 96.4156 34.6C97.909 33.1067 98.6556 31.16 98.6556 28.76C98.6556 26.36 97.8823 25.16 96.3356 25.16C94.469 25.16 92.8956 26.4667 91.6156 29.08C90.3356 31.64 89.6423 34.4933 89.5356 37.64ZM117.453 47.48C119.373 47.48 121.053 46.4933 122.493 44.52C123.933 42.4933 125 40.04 125.693 37.16C123.773 36.5733 122.306 35.56 121.293 34.12C120.28 32.6267 119.773 30.92 119.773 29C119.773 27.08 120.253 25.4 121.213 23.96C122.226 22.52 123.666 21.8 125.533 21.8C126.653 21.8 127.506 22.52 128.093 23.96C128.68 25.3467 128.973 26.92 128.973 28.68C128.973 30.44 128.84 32.2 128.573 33.96C129.373 34.28 130.226 34.44 131.133 34.44C133.213 34.44 135.213 33.48 137.133 31.56C138.093 30.6 138.733 30.12 139.053 30.12C139.426 30.12 139.613 30.3867 139.613 30.92C139.613 31.4533 139.266 32.0933 138.573 32.84C135.746 35.9867 132.173 37.56 127.853 37.56C126.84 41.4533 125.266 44.7333 123.133 47.4C121 50.0667 118.386 51.4 115.293 51.4C113.48 51.4 111.986 50.6267 110.813 49.08C108.84 46.5733 107.853 42.8933 107.853 38.04C107.853 36.3867 107.986 34.2533 108.253 31.64C108.52 29.0267 108.813 27.4267 109.133 26.84C109.506 26.2533 110.36 25.5333 111.693 24.68C113.08 23.8267 114.04 23.4 114.573 23.4C115.373 23.4 115.773 23.88 115.773 24.84C115.773 27.56 115.08 30.52 113.693 33.72C113.693 37.5067 113.986 40.76 114.573 43.48C115.213 46.1467 116.173 47.48 117.453 47.48ZM124.733 24.84C124.306 24.84 124.093 25.72 124.093 27.48C124.093 29.24 124.893 30.92 126.493 32.52C126.6 31.88 126.653 31.24 126.653 30.6C126.653 26.76 126.013 24.84 124.733 24.84ZM168.222 37.8C168.595 37.2667 169.129 36.3333 169.822 35C171.529 31.96 172.542 30.44 172.862 30.44C173.235 30.44 173.422 30.6533 173.422 31.08C173.422 33.6933 172.062 37 169.342 41C164.435 48.2 157.902 51.8 149.742 51.8C147.449 51.8 145.342 51.2667 143.422 50.2C141.502 49.1333 139.982 47.7733 138.862 46.12C136.569 42.76 135.422 39.24 135.422 35.56C135.422 26.28 137.822 18.8133 142.622 13.16C147.475 7.45333 153.209 4.6 159.822 4.6C162.329 4.6 164.382 5.34666 165.982 6.84C167.582 8.28 168.382 10.12 168.382 12.36C168.382 14.6 167.822 16.68 166.702 18.6C165.582 20.52 164.222 21.48 162.622 21.48C161.075 21.48 160.302 21.0533 160.302 20.2C160.302 19.24 160.809 18.1467 161.822 16.92C162.889 15.6933 163.422 14.4667 163.422 13.24C163.422 9.45333 161.395 7.56 157.342 7.56C153.342 7.56 149.715 10.2533 146.462 15.64C143.209 21.0267 141.582 26.5733 141.582 32.28C141.582 36.2267 142.702 39.7467 144.942 42.84C147.182 45.88 150.329 47.4 154.382 47.4C159.182 47.4 163.795 44.2 168.222 37.8ZM193.431 33.64C195.564 32.9467 197.031 32.36 197.831 31.88C198.684 31.3467 199.324 30.9467 199.751 30.68L200.711 30.12C200.977 29.96 201.191 29.88 201.351 29.88C201.777 29.88 201.991 30.12 201.991 30.6C201.991 31.08 201.164 31.9333 199.511 33.16C197.857 34.3333 195.804 35.4 193.351 36.36C192.977 40.84 191.564 44.4667 189.111 47.24C186.657 50.0133 183.164 51.4 178.631 51.4C175.324 51.4 172.791 50.0933 171.031 47.48C169.271 44.8133 168.391 41.72 168.391 38.2C168.391 34.6267 169.431 31.2667 171.511 28.12C173.644 24.9733 176.364 23.4 179.671 23.4C181.164 22.3333 182.924 21.8 184.951 21.8C187.031 21.8 188.951 22.8933 190.711 25.08C192.471 27.2667 193.377 30.12 193.431 33.64ZM188.231 37.72L185.351 37.88C182.897 37.88 180.817 37.16 179.111 35.72C177.404 34.2267 176.551 32.6 176.551 30.84C176.551 29.08 176.844 27.56 177.431 26.28C175.137 28.0933 173.991 31.6667 173.991 37C173.991 39.56 174.524 42.0133 175.591 44.36C176.657 46.6533 178.337 47.8 180.631 47.8C182.924 47.8 184.711 46.84 185.991 44.92C187.271 42.9467 188.017 40.5467 188.231 37.72ZM183.271 24.44C182.417 24.44 181.751 24.84 181.271 25.64C180.791 26.3867 180.551 27.2133 180.551 28.12C180.551 30.0933 181.217 31.6933 182.551 32.92C183.937 34.1467 185.537 34.76 187.351 34.76H188.311C188.204 32.1467 187.751 29.7733 186.951 27.64C186.204 25.5067 184.977 24.44 183.271 24.44ZM203.771 46.68L203.851 49.16C203.851 50.6533 203.425 51.4 202.571 51.4C201.291 51.4 200.065 51.24 198.891 50.92C197.718 50.5467 197.131 50.0667 197.131 49.48C197.131 48.84 197.265 46.7333 197.531 43.16C197.851 39.5333 198.011 36.8133 198.011 35V30.28C198.011 27.72 198.278 26.1733 198.811 25.64C199.345 25.1067 200.278 24.3333 201.611 23.32C202.998 22.3067 203.985 21.8 204.571 21.8C205.211 21.8 205.611 21.9067 205.771 22.12C205.931 22.3333 206.011 22.7333 206.011 23.32C206.011 26.1467 205.478 28.8133 204.411 31.32C204.145 34.36 204.011 36.4667 204.011 37.64C204.225 37.32 205.345 35.5067 207.371 32.2C209.398 28.8933 211.105 26.4667 212.491 24.92C213.931 23.3733 215.211 22.6 216.331 22.6C217.451 22.6 218.438 22.9733 219.291 23.72C220.198 24.4667 220.651 25.4 220.651 26.52C220.651 28.8667 220.385 32.3333 219.851 36.92C219.371 41.4533 219.131 44.3333 219.131 45.56C219.131 46.7333 219.291 47.32 219.611 47.32C220.518 47.2667 221.771 46.1467 223.371 43.96C224.971 41.72 226.545 38.8667 228.091 35.4C229.691 31.9333 230.651 30.2 230.971 30.2C231.345 30.2 231.531 30.4133 231.531 30.84C231.531 32.3333 230.758 34.7067 229.211 37.96C224.998 46.92 221.451 51.4 218.571 51.4C216.491 51.4 214.918 50.9733 213.851 50.12C213.478 49.7467 213.291 48.7867 213.291 47.24C213.291 45.64 213.425 43.08 213.691 39.56C214.011 35.9867 214.171 33.32 214.171 31.56C214.171 29.8 213.851 28.92 213.211 28.92C212.625 28.92 211.025 30.76 208.411 34.44C205.798 38.0667 204.411 40.3867 204.251 41.4C203.931 43.2667 203.771 45.0267 203.771 46.68ZM233.459 46.68L233.539 49.16C233.539 50.6533 233.112 51.4 232.259 51.4C230.979 51.4 229.752 51.24 228.579 50.92C227.405 50.5467 226.819 50.0667 226.819 49.48C226.819 48.84 226.952 46.7333 227.219 43.16C227.539 39.5333 227.699 36.8133 227.699 35V30.28C227.699 27.72 227.965 26.1733 228.499 25.64C229.032 25.1067 229.965 24.3333 231.299 23.32C232.685 22.3067 233.672 21.8 234.259 21.8C234.899 21.8 235.299 21.9067 235.459 22.12C235.619 22.3333 235.699 22.7333 235.699 23.32C235.699 26.1467 235.165 28.8133 234.099 31.32C233.832 34.36 233.699 36.4667 233.699 37.64C233.912 37.32 235.032 35.5067 237.059 32.2C239.085 28.8933 240.792 26.4667 242.179 24.92C243.619 23.3733 244.899 22.6 246.019 22.6C247.139 22.6 248.125 22.9733 248.979 23.72C249.885 24.4667 250.339 25.4 250.339 26.52C250.339 28.8667 250.072 32.3333 249.539 36.92C249.059 41.4533 248.819 44.3333 248.819 45.56C248.819 46.7333 248.979 47.32 249.299 47.32C250.205 47.2667 251.459 46.1467 253.059 43.96C254.659 41.72 256.232 38.8667 257.779 35.4C259.379 31.9333 260.339 30.2 260.659 30.2C261.032 30.2 261.219 30.4133 261.219 30.84C261.219 32.3333 260.445 34.7067 258.899 37.96C254.685 46.92 251.139 51.4 248.259 51.4C246.179 51.4 244.605 50.9733 243.539 50.12C243.165 49.7467 242.979 48.7867 242.979 47.24C242.979 45.64 243.112 43.08 243.379 39.56C243.699 35.9867 243.859 33.32 243.859 31.56C243.859 29.8 243.539 28.92 242.899 28.92C242.312 28.92 240.712 30.76 238.099 34.44C235.485 38.0667 234.099 40.3867 233.939 41.4C233.619 43.2667 233.459 45.0267 233.459 46.68ZM266.666 51.4C263.68 51.4 261.306 50.28 259.546 48.04C257.786 45.7467 256.906 43.16 256.906 40.28C256.906 34.4667 258.133 30.0667 260.586 27.08C263.04 24.0933 266.213 22.6 270.106 22.6C271.92 22.6 273.413 23.1067 274.586 24.12C275.76 25.08 276.346 26.4133 276.346 28.12C276.346 31.32 274.986 34.0133 272.266 36.2C269.6 38.3333 266.32 39.4533 262.426 39.56C262.64 41.64 263.333 43.4533 264.506 45C265.733 46.4933 267.146 47.24 268.746 47.24C270.346 47.24 271.786 46.8667 273.066 46.12C274.346 45.3733 275.52 44.3067 276.586 42.92C278.826 39.9867 280.746 36.6533 282.346 32.92C282.773 31.96 283.093 31.2667 283.306 30.84C283.573 30.4133 283.84 30.2 284.106 30.2C284.426 30.2 284.586 30.4133 284.586 30.84C284.586 33.5067 282.96 37.5067 279.706 42.84C276.186 48.5467 271.84 51.4 266.666 51.4ZM262.426 37.64C265.573 37.1067 267.866 36.0933 269.306 34.6C270.8 33.1067 271.546 31.16 271.546 28.76C271.546 26.36 270.773 25.16 269.226 25.16C267.36 25.16 265.786 26.4667 264.506 29.08C263.226 31.64 262.533 34.4933 262.426 37.64ZM294.664 31.56L295.304 27.48C295.304 26.8933 295.117 26.36 294.744 25.88C294.37 25.4 293.89 25.16 293.304 25.16C291.33 25.16 289.624 26.6533 288.184 29.64C286.744 32.5733 286.024 35.4 286.024 38.12C286.024 40.84 286.584 43.0533 287.704 44.76C288.824 46.4133 290.184 47.24 291.784 47.24C293.437 47.24 294.904 46.8667 296.184 46.12C297.464 45.3733 298.637 44.3067 299.704 42.92C301.944 39.9867 303.864 36.6533 305.464 32.92C305.89 31.96 306.21 31.2667 306.424 30.84C306.69 30.4133 306.957 30.2 307.224 30.2C307.544 30.2 307.704 30.4133 307.704 30.84C307.704 32.6 307.09 34.7067 305.864 37.16C304.637 39.6133 303.597 41.5067 302.744 42.84C301.944 44.12 300.904 45.48 299.624 46.92C296.957 49.9067 293.624 51.4 289.624 51.4C286.584 51.4 284.264 50.3333 282.664 48.2C281.117 46.0133 280.344 43.6933 280.344 41.24C280.344 35.16 281.65 30.5467 284.264 27.4C286.93 24.2 290.29 22.6 294.344 22.6C296.05 22.6 297.384 23.0533 298.344 23.96C299.357 24.8133 299.864 25.8 299.864 26.92C299.864 29 299.49 30.5467 298.744 31.56C297.997 32.5733 297.09 33.08 296.024 33.08C295.117 33.08 294.664 32.5733 294.664 31.56ZM321.154 37.96C316.941 46.92 313.368 51.4 310.434 51.4C307.554 51.4 305.848 51.0533 305.314 50.36C304.834 49.6667 304.594 47.3733 304.594 43.48C304.594 39.5867 304.968 33.96 305.714 26.6C303.048 26.0667 301.634 24.9733 301.474 23.32C301.474 22.4667 302.034 22.04 303.154 22.04C304.274 22.04 305.261 22.2533 306.114 22.68C306.594 18.84 307.154 14.9467 307.794 11C307.954 9.98666 308.461 9.02666 309.314 8.12C310.168 7.21333 310.994 6.76 311.794 6.76C312.488 6.76 312.834 7.85333 312.834 10.04C312.834 11.0533 312.461 15.72 311.714 24.04C313.154 23.7733 314.728 23.24 316.434 22.44C318.194 21.64 319.234 21.24 319.554 21.24C320.514 21.24 320.994 21.5333 320.994 22.12C321.048 22.6533 320.061 23.4 318.034 24.36C316.008 25.2667 313.821 25.96 311.474 26.44C310.834 34.2267 310.514 40.12 310.514 44.12C310.514 46.2533 310.834 47.32 311.474 47.32C312.434 47.2667 313.714 46.1467 315.314 43.96C316.914 41.7733 318.488 38.9467 320.034 35.48C321.634 31.96 322.594 30.2 322.914 30.2C323.288 30.2 323.474 30.4133 323.474 30.84C323.474 32.3333 322.701 34.7067 321.154 37.96Z" fill="black"/>
</svg>
